<mxfile host="app.diagrams.net" modified="2024-07-04T21:41:13.863Z" agent="Mozilla/5.0 (Windows NT 10.0; Win64; x64) AppleWebKit/537.36 (KHTML, like Gecko) Chrome/126.0.0.0 Safari/537.36" etag="Q41wYx_u0kcsBIoKm2BQ" version="24.6.4" type="device">
  <diagram name="Page-1" id="3rnBCiRVLusEH87E3wuf">
    <mxGraphModel dx="1795" dy="4505" grid="0" gridSize="10" guides="1" tooltips="1" connect="1" arrows="1" fold="1" page="1" pageScale="1" pageWidth="850" pageHeight="1100" math="0" shadow="0">
      <root>
        <mxCell id="0" />
        <mxCell id="1" parent="0" />
        <object placeholders="1" c4Name="Fluxo de caixa" c4Type="ContainerScopeBoundary" c4Application="Cash Flow System" label="&lt;font style=&quot;font-size: 16px&quot;&gt;&lt;b&gt;&lt;div style=&quot;text-align: left&quot;&gt;%c4Name%&lt;/div&gt;&lt;/b&gt;&lt;/font&gt;&lt;div style=&quot;text-align: left&quot;&gt;[%c4Application%]&lt;/div&gt;&#xa;" link="" id="QPM4C6ns2PmxzMLg4GbO-1">
          <mxCell style="rounded=1;fontSize=11;whiteSpace=wrap;html=1;arcSize=20;fillColor=#DBDBDB;strokeColor=#d4d3d3;fontColor=#333333;labelBackgroundColor=none;align=left;verticalAlign=bottom;labelBorderColor=none;spacingTop=0;spacing=10;metaEdit=1;rotatable=0;perimeter=rectanglePerimeter;noLabel=0;labelPadding=0;allowArrows=0;connectable=0;expand=0;recursiveResize=0;editable=1;pointerEvents=0;absoluteArcSize=1;points=[[0.25,0,0],[0.5,0,0],[0.75,0,0],[1,0.25,0],[1,0.5,0],[1,0.75,0],[0.75,1,0],[0.5,1,0],[0.25,1,0],[0,0.75,0],[0,0.5,0],[0,0.25,0]];shadow=1;gradientColor=none;sketch=1;curveFitting=1;jiggle=2;glass=0;" parent="1" vertex="1">
            <mxGeometry x="-744" y="-740" width="658" height="1036" as="geometry" />
          </mxCell>
        </object>
        <object placeholders="1" c4Type="MessageBus" c4Container="Container" c4Technology="RabbitMQ - Topics/Queue" c4Description="Responsabilidade de &#xa;Publicar Cash Flow&#xa;/Daily Consolidated &#xa;para os serviços" label="&lt;font style=&quot;font-size: 16px&quot;&gt;&lt;b&gt;%c4Type%&lt;/b&gt;&lt;/font&gt;&lt;div&gt;[%c4Container%:&amp;nbsp;%c4Technology%]&lt;/div&gt;&lt;br&gt;&lt;div&gt;&lt;font style=&quot;font-size: 11px&quot;&gt;&lt;font color=&quot;#E6E6E6&quot;&gt;%c4Description%&lt;/font&gt;&lt;/div&gt;" id="QPM4C6ns2PmxzMLg4GbO-2">
          <mxCell style="shape=cylinder3;size=15;direction=south;whiteSpace=wrap;html=1;boundedLbl=1;rounded=0;labelBackgroundColor=none;fillColor=#f76300;fontSize=12;fontColor=#ffffff;align=center;strokeColor=#994C00;metaEdit=1;points=[[0.5,0,0],[1,0.25,0],[1,0.5,0],[1,0.75,0],[0.5,1,0],[0,0.75,0],[0,0.5,0],[0,0.25,0]];resizable=1;rotation=-90;resizeHeight=1;resizeWidth=1;shadow=1;" parent="1" vertex="1">
            <mxGeometry x="-410" y="-38" width="410" height="105" as="geometry" />
          </mxCell>
        </object>
        <object placeholders="1" c4Name="CashFlow&#xa;Engine" c4Type="Container" c4Technology="MongoDB" c4Description="Responsabilidade de storage&#xa;CashFlow " label="&lt;font style=&quot;font-size: 14px;&quot;&gt;&lt;b style=&quot;font-size: 14px;&quot;&gt;%c4Name%&lt;/b&gt;&lt;/font&gt;&lt;div style=&quot;font-size: 14px;&quot;&gt;[%c4Type%:&amp;nbsp;%c4Technology%]&lt;/div&gt;&lt;br style=&quot;font-size: 14px;&quot;&gt;&lt;div style=&quot;font-size: 14px;&quot;&gt;&lt;font style=&quot;font-size: 14px;&quot;&gt;&lt;font style=&quot;font-size: 14px;&quot; color=&quot;#E6E6E6&quot;&gt;%c4Description%&lt;/font&gt;&lt;/font&gt;&lt;/div&gt;" id="QPM4C6ns2PmxzMLg4GbO-3">
          <mxCell style="shape=cylinder3;size=15;whiteSpace=wrap;html=1;boundedLbl=1;rounded=0;labelBackgroundColor=none;fillColor=#4aa73b;fontSize=14;fontColor=#ffffff;align=center;strokeColor=#0E7DAD;metaEdit=1;points=[[0.5,0,0],[1,0.25,0],[1,0.5,0],[1,0.75,0],[0.5,1,0],[0,0.75,0],[0,0.5,0],[0,0.25,0]];resizable=1;verticalAlign=middle;shadow=1;" parent="1" vertex="1">
            <mxGeometry x="-530" y="74" width="240" height="144" as="geometry" />
          </mxCell>
        </object>
        <object placeholders="1" c4Name="Single Page Application" c4Type="Container" c4Technology="JavaScript, Angular etc." c4Description="Browser Exchange" label="&lt;font style=&quot;font-size: 16px&quot;&gt;&lt;b&gt;%c4Name%&lt;/b&gt;&lt;/font&gt;&lt;div&gt;[%c4Type%:&amp;nbsp;%c4Technology%]&lt;/div&gt;&lt;br&gt;&lt;div&gt;&lt;font style=&quot;font-size: 11px&quot;&gt;&lt;font&gt;%c4Description%&lt;/font&gt;&lt;/font&gt;&lt;/div&gt;" id="QPM4C6ns2PmxzMLg4GbO-4">
          <mxCell style="shape=mxgraph.c4.webBrowserContainer2;whiteSpace=wrap;html=1;boundedLbl=1;rounded=0;labelBackgroundColor=none;strokeColor=#118ACD;fillColor=#23A2D9;strokeColor=#118ACD;strokeColor2=#0E7DAD;fontSize=12;fontColor=#000000;align=center;metaEdit=1;points=[[0.5,0,0],[1,0.25,0],[1,0.5,0],[1,0.75,0],[0.5,1,0],[0,0.75,0],[0,0.5,0],[0,0.25,0]];resizable=0;shadow=1;sketch=1;curveFitting=1;jiggle=2;" parent="1" vertex="1">
            <mxGeometry x="-540" y="-650" width="240" height="160" as="geometry" />
          </mxCell>
        </object>
        <object placeholders="1" c4Name="Person name" c4Type="Person" c4Description="A user entry the cash flow&#xa;information of debit/credit" label="&lt;font style=&quot;font-size: 16px&quot;&gt;&lt;b&gt;%c4Name%&lt;/b&gt;&lt;/font&gt;&lt;div&gt;[%c4Type%]&lt;/div&gt;&lt;br&gt;&lt;div&gt;&lt;font style=&quot;font-size: 11px&quot;&gt;&lt;font&gt;%c4Description%&lt;/font&gt;&lt;/font&gt;&lt;/div&gt;" id="QPM4C6ns2PmxzMLg4GbO-5">
          <mxCell style="html=1;fontSize=11;dashed=0;whiteSpace=wrap;fillColor=#3b8ad8;strokeColor=#06315C;fontColor=#000000;shape=mxgraph.c4.person2;align=center;metaEdit=1;points=[[0.5,0,0],[1,0.5,0],[1,0.75,0],[0.75,1,0],[0.5,1,0],[0.25,1,0],[0,0.75,0],[0,0.5,0]];resizable=0;shadow=1;sketch=1;curveFitting=1;jiggle=2;gradientColor=none;" parent="1" vertex="1">
            <mxGeometry x="-520" y="-930" width="200" height="180" as="geometry" />
          </mxCell>
        </object>
        <object placeholders="1" c4Name="CashFlow API" c4Type="Component" c4Technology="Controller" c4Description="Responsabilidade de receber os dados de&#xa;fluxo de caixa" label="&lt;font style=&quot;font-size: 16px&quot;&gt;&lt;b&gt;%c4Name%&lt;/b&gt;&lt;/font&gt;&lt;div&gt;[%c4Type%: %c4Technology%]&lt;/div&gt;&lt;br&gt;&lt;div&gt;&lt;font style=&quot;font-size: 11px&quot;&gt;%c4Description%&lt;/font&gt;&lt;/div&gt;" id="QPM4C6ns2PmxzMLg4GbO-6">
          <mxCell style="rounded=1;whiteSpace=wrap;html=1;labelBackgroundColor=none;fillColor=#63BEF2;fontColor=#000000;align=center;arcSize=6;strokeColor=#2086C9;metaEdit=1;resizable=0;points=[[0.25,0,0],[0.5,0,0],[0.75,0,0],[1,0.25,0],[1,0.5,0],[1,0.75,0],[0.75,1,0],[0.5,1,0],[0.25,1,0],[0,0.75,0],[0,0.5,0],[0,0.25,0]];sketch=1;curveFitting=1;jiggle=2;" parent="1" vertex="1">
            <mxGeometry x="-700" y="-410" width="240" height="120" as="geometry" />
          </mxCell>
        </object>
        <object placeholders="1" c4Name="Application/Services" c4Type="Component" c4Technology="CommandHanlder/QueryHandler" c4Description="Responsabilidade receber fluxo de&#xa;caixa via Protobuf e enviar&#xa;para o repositório." label="&lt;font style=&quot;font-size: 16px&quot;&gt;&lt;b&gt;%c4Name%&lt;/b&gt;&lt;/font&gt;&lt;div&gt;[%c4Type%: %c4Technology%]&lt;/div&gt;&lt;br&gt;&lt;div&gt;&lt;font style=&quot;font-size: 11px&quot;&gt;%c4Description%&lt;/font&gt;&lt;/div&gt;" id="QPM4C6ns2PmxzMLg4GbO-7">
          <mxCell style="rounded=1;whiteSpace=wrap;html=1;labelBackgroundColor=none;fillColor=#63BEF2;fontColor=#000000;align=center;arcSize=6;strokeColor=#2086C9;metaEdit=1;resizable=0;points=[[0.25,0,0],[0.5,0,0],[0.75,0,0],[1,0.25,0],[1,0.5,0],[1,0.75,0],[0.75,1,0],[0.5,1,0],[0.25,1,0],[0,0.75,0],[0,0.5,0],[0,0.25,0]];sketch=1;curveFitting=1;jiggle=2;" parent="1" vertex="1">
            <mxGeometry x="-537.25" y="-186" width="240" height="120" as="geometry" />
          </mxCell>
        </object>
        <object placeholders="1" c4Type="Relationship" c4Technology="HTTP" c4Description="Uses" label="&lt;div style=&quot;text-align: left&quot;&gt;&lt;div style=&quot;text-align: center&quot;&gt;&lt;b&gt;%c4Description%&lt;/b&gt;&lt;/div&gt;&lt;div style=&quot;text-align: center&quot;&gt;[%c4Technology%]&lt;/div&gt;&lt;/div&gt;" id="QPM4C6ns2PmxzMLg4GbO-8">
          <mxCell style="endArrow=blockThin;html=1;fontSize=10;fontColor=#404040;strokeWidth=2;endFill=1;strokeColor=#1a9aea;elbow=vertical;metaEdit=1;jumpStyle=arc;jumpSize=16;rounded=1;edgeStyle=orthogonalEdgeStyle;curved=0;entryX=0.5;entryY=0;entryDx=0;entryDy=0;entryPerimeter=0;fillColor=#000066;exitX=0.5;exitY=1;exitDx=0;exitDy=0;exitPerimeter=0;" parent="1" source="QPM4C6ns2PmxzMLg4GbO-5" target="QPM4C6ns2PmxzMLg4GbO-4" edge="1">
            <mxGeometry x="-0.2329" y="-35" width="240" relative="1" as="geometry">
              <mxPoint x="-280" y="-770" as="sourcePoint" />
              <mxPoint x="-290" y="-617" as="targetPoint" />
              <Array as="points">
                <mxPoint x="-420" y="-720" />
                <mxPoint x="-420" y="-720" />
              </Array>
              <mxPoint as="offset" />
            </mxGeometry>
          </mxCell>
        </object>
        <object placeholders="1" c4Type="Relationship" c4Technology="HTTP" c4Description="Uses" label="&lt;div style=&quot;text-align: left&quot;&gt;&lt;div style=&quot;text-align: center&quot;&gt;&lt;b&gt;%c4Description%&lt;/b&gt;&lt;/div&gt;&lt;div style=&quot;text-align: center&quot;&gt;[%c4Technology%]&lt;/div&gt;&lt;/div&gt;" id="QPM4C6ns2PmxzMLg4GbO-9">
          <mxCell style="endArrow=blockThin;html=1;fontSize=10;fontColor=#404040;strokeWidth=2;endFill=1;strokeColor=#1a9aea;elbow=vertical;metaEdit=1;jumpStyle=arc;jumpSize=16;rounded=1;edgeStyle=orthogonalEdgeStyle;curved=0;entryX=0.5;entryY=0;entryDx=0;entryDy=0;entryPerimeter=0;fillColor=#000066;exitX=0.5;exitY=1;exitDx=0;exitDy=0;exitPerimeter=0;" parent="1" source="QPM4C6ns2PmxzMLg4GbO-4" target="QPM4C6ns2PmxzMLg4GbO-6" edge="1">
            <mxGeometry x="0.7289" y="-30" width="240" relative="1" as="geometry">
              <mxPoint x="-460" y="-470" as="sourcePoint" />
              <mxPoint x="-460" y="-324" as="targetPoint" />
              <Array as="points">
                <mxPoint x="-420" y="-450" />
                <mxPoint x="-580" y="-450" />
              </Array>
              <mxPoint x="30" y="-30" as="offset" />
            </mxGeometry>
          </mxCell>
        </object>
        <object placeholders="1" c4Name="HUB SignalR" c4Type="Component" c4Technology="CommandHandler" c4Description="Responsabilidade de receber fluxo &#xa;de caixa e gerar sinal de json para " label="&lt;font style=&quot;font-size: 16px&quot;&gt;&lt;b&gt;%c4Name%&lt;/b&gt;&lt;/font&gt;&lt;div&gt;[%c4Type%: %c4Technology%]&lt;/div&gt;&lt;br&gt;&lt;div&gt;&lt;font style=&quot;font-size: 11px&quot;&gt;%c4Description%&lt;/font&gt;&lt;/div&gt;" id="QPM4C6ns2PmxzMLg4GbO-10">
          <mxCell style="rounded=1;whiteSpace=wrap;html=1;labelBackgroundColor=none;fillColor=#63BEF2;fontColor=#000000;align=center;arcSize=6;strokeColor=#2086C9;metaEdit=1;resizable=0;points=[[0.25,0,0],[0.5,0,0],[0.75,0,0],[1,0.25,0],[1,0.5,0],[1,0.75,0],[0.75,1,0],[0.5,1,0],[0.25,1,0],[0,0.75,0],[0,0.5,0],[0,0.25,0]];sketch=1;curveFitting=1;jiggle=2;" parent="1" vertex="1">
            <mxGeometry x="-370" y="-410" width="240" height="120" as="geometry" />
          </mxCell>
        </object>
        <object placeholders="1" c4Type="Relationship" c4Technology="Entity Framework" c4Description="Writes to" label="&lt;div style=&quot;text-align: left&quot;&gt;&lt;div style=&quot;text-align: center&quot;&gt;&lt;b&gt;%c4Description%&lt;/b&gt;&lt;/div&gt;&lt;div style=&quot;text-align: center&quot;&gt;[%c4Technology%]&lt;/div&gt;&lt;/div&gt;" id="QPM4C6ns2PmxzMLg4GbO-11">
          <mxCell style="endArrow=blockThin;html=1;fontSize=10;fontColor=#404040;strokeWidth=2;endFill=1;strokeColor=#1a9aea;elbow=vertical;metaEdit=1;jumpStyle=arc;jumpSize=16;rounded=1;edgeStyle=orthogonalEdgeStyle;curved=0;fillColor=#000066;exitX=0;exitY=0.5;exitDx=0;exitDy=0;exitPerimeter=0;" parent="1" source="QPM4C6ns2PmxzMLg4GbO-7" edge="1">
            <mxGeometry x="0.3206" y="30" width="240" relative="1" as="geometry">
              <mxPoint x="-520" y="-110" as="sourcePoint" />
              <mxPoint x="-540" y="110" as="targetPoint" />
              <Array as="points">
                <mxPoint x="-580" y="-126" />
                <mxPoint x="-580" y="110" />
              </Array>
              <mxPoint as="offset" />
            </mxGeometry>
          </mxCell>
        </object>
        <object placeholders="1" c4Type="Relationship" c4Technology="Protobuf" c4Description="Sends to" label="&lt;div style=&quot;text-align: left&quot;&gt;&lt;div style=&quot;text-align: center&quot;&gt;&lt;b&gt;%c4Description%&lt;/b&gt;&lt;/div&gt;&lt;div style=&quot;text-align: center&quot;&gt;[%c4Technology%]&lt;/div&gt;&lt;/div&gt;" id="QPM4C6ns2PmxzMLg4GbO-14">
          <mxCell style="endArrow=blockThin;html=1;fontSize=10;fontColor=#404040;strokeWidth=3;endFill=1;strokeColor=#f76300;elbow=vertical;metaEdit=1;jumpStyle=arc;jumpSize=16;rounded=1;edgeStyle=orthogonalEdgeStyle;curved=0;fillColor=#000066;exitX=0.014;exitY=0.389;exitDx=0;exitDy=0;exitPerimeter=0;entryX=1;entryY=0.5;entryDx=0;entryDy=0;entryPerimeter=0;dashed=1;flowAnimation=1;" parent="1" source="QPM4C6ns2PmxzMLg4GbO-2" target="QPM4C6ns2PmxzMLg4GbO-7" edge="1">
            <mxGeometry x="-0.6481" y="25" width="240" relative="1" as="geometry">
              <mxPoint x="-300" y="-90" as="sourcePoint" />
              <mxPoint x="-257" y="20" as="targetPoint" />
              <Array as="points">
                <mxPoint x="-275" y="-31" />
                <mxPoint x="-275" y="-126" />
              </Array>
              <mxPoint x="6" y="17" as="offset" />
            </mxGeometry>
          </mxCell>
        </object>
        <object placeholders="1" c4Type="Relationship" c4Technology="Protobuf" c4Description="Sends to" label="&lt;div style=&quot;text-align: left&quot;&gt;&lt;div style=&quot;text-align: center&quot;&gt;&lt;b&gt;%c4Description%&lt;/b&gt;&lt;/div&gt;&lt;div style=&quot;text-align: center&quot;&gt;[%c4Technology%]&lt;/div&gt;&lt;/div&gt;" id="QPM4C6ns2PmxzMLg4GbO-15">
          <mxCell style="endArrow=blockThin;html=1;fontSize=10;fontColor=#404040;strokeWidth=3;endFill=1;strokeColor=#f76300;elbow=vertical;metaEdit=1;jumpStyle=arc;jumpSize=16;rounded=1;edgeStyle=orthogonalEdgeStyle;curved=0;fillColor=#000066;entryX=0.52;entryY=1.017;entryDx=0;entryDy=0;entryPerimeter=0;dashed=1;flowAnimation=1;exitX=0.991;exitY=0.24;exitDx=0;exitDy=0;exitPerimeter=0;" parent="1" source="QPM4C6ns2PmxzMLg4GbO-2" target="QPM4C6ns2PmxzMLg4GbO-10" edge="1">
            <mxGeometry x="-0.0307" y="30" width="240" relative="1" as="geometry">
              <mxPoint x="-209" y="-215" as="sourcePoint" />
              <mxPoint x="-370" y="-250" as="targetPoint" />
              <Array as="points">
                <mxPoint x="-105" y="-92" />
                <mxPoint x="-105" y="-263" />
                <mxPoint x="-245" y="-263" />
              </Array>
              <mxPoint as="offset" />
            </mxGeometry>
          </mxCell>
        </object>
        <object placeholders="1" c4Type="Relationship" c4Technology="JSON" c4Description="Sends to" label="&lt;div style=&quot;text-align: left&quot;&gt;&lt;div style=&quot;text-align: center&quot;&gt;&lt;b&gt;%c4Description%&lt;/b&gt;&lt;/div&gt;&lt;div style=&quot;text-align: center&quot;&gt;[%c4Technology%]&lt;/div&gt;&lt;/div&gt;" id="QPM4C6ns2PmxzMLg4GbO-16">
          <mxCell style="endArrow=blockThin;html=1;fontSize=10;fontColor=#404040;strokeWidth=3;endFill=1;strokeColor=#59b4d9;elbow=vertical;metaEdit=1;jumpStyle=arc;jumpSize=16;rounded=1;edgeStyle=orthogonalEdgeStyle;curved=0;fillColor=#000066;exitX=0.5;exitY=0;exitDx=0;exitDy=0;exitPerimeter=0;entryX=0.592;entryY=1;entryDx=0;entryDy=0;entryPerimeter=0;dashed=1;flowAnimation=1;" parent="1" source="QPM4C6ns2PmxzMLg4GbO-10" target="QPM4C6ns2PmxzMLg4GbO-4" edge="1">
            <mxGeometry x="-0.7088" y="-30" width="240" relative="1" as="geometry">
              <mxPoint x="-199" y="-205" as="sourcePoint" />
              <mxPoint x="-235" y="-278" as="targetPoint" />
              <Array as="points">
                <mxPoint x="-250" y="-440" />
                <mxPoint x="-398" y="-440" />
              </Array>
              <mxPoint as="offset" />
            </mxGeometry>
          </mxCell>
        </object>
        <object placeholders="1" c4Type="Relationship" c4Technology="Entity Framework" c4Description="Reads to" label="&lt;div style=&quot;text-align: left&quot;&gt;&lt;div style=&quot;text-align: center&quot;&gt;&lt;b&gt;%c4Description%&lt;/b&gt;&lt;/div&gt;&lt;div style=&quot;text-align: center&quot;&gt;[%c4Technology%]&lt;/div&gt;&lt;/div&gt;" id="QPM4C6ns2PmxzMLg4GbO-17">
          <mxCell style="endArrow=blockThin;html=1;fontSize=10;fontColor=#404040;strokeWidth=2;endFill=1;strokeColor=#1a9aea;elbow=vertical;metaEdit=1;jumpStyle=arc;jumpSize=16;rounded=1;edgeStyle=orthogonalEdgeStyle;curved=0;fillColor=#000066;exitX=0.471;exitY=0.005;exitDx=0;exitDy=0;exitPerimeter=0;entryX=0.5;entryY=1;entryDx=0;entryDy=0;entryPerimeter=0;" parent="1" source="QPM4C6ns2PmxzMLg4GbO-3" target="QPM4C6ns2PmxzMLg4GbO-7" edge="1">
            <mxGeometry y="60" width="240" relative="1" as="geometry">
              <mxPoint x="-527" y="-116" as="sourcePoint" />
              <mxPoint x="-440" y="-16" as="targetPoint" />
              <Array as="points">
                <mxPoint x="-417" y="14" />
              </Array>
              <mxPoint as="offset" />
            </mxGeometry>
          </mxCell>
        </object>
        <mxCell id="QPM4C6ns2PmxzMLg4GbO-18" value="" style="shape=image;verticalLabelPosition=bottom;labelBackgroundColor=default;verticalAlign=top;aspect=fixed;imageAspect=0;image=data:image/png,iVBORw0KGgoAAAANSUhEUgAAAVoAAAFmCAYAAAAs6VKgAAAAAXNSR0IArs4c6QAAAARnQU1BAACxjwv8YQUAAAAJcEhZcwAADsMAAA7DAcdvqGQAADLpSURBVHhe7d0HYBTF/gfw3+zu3aWHQCAECL0JSEdqQBSx0BUQ6U9FeSr6fIrl2Rt2LKjYUFCKio0iKqJ0QenSeydASCjpd7c7/5m79f31vQdCsnv1+8Elt78JwsHt9+Zmd2cY55wAAMA+ivkVAABsgqAFALAZghYAwGYYo4WQw91FjOcdd4qHLiY28dVJXz3ocm9dls4VShH7seJVK9tJtJeIL0UKp+OOzjeeoI5/k/slot3ta0up5maKKr8VIGgQtBASjBP7VL5zeWWRnNWNgxtqeb97saF4XJdxkl8zxLeUE5vm++az84gthzjt4oz2iF+7QxvyxhYWV+6gqO1Xmvc8wWKT8YKHgEPQQlDpyz4oZ+z9NZMf351pbFnQRIRqbVGuIbYY3zeU3Rmx7RdBu1u55Pp1InQXqS2vW6M0vqLA3wxgPwQtBBT3FDPyFDmLXr66lubJv8E4eegqKjpdUzTJIQGH75vsUyy2XEqqvJMlVJhtVG0xPWbY6znkSvAw1e7fGqIZghYCRt8wp6K++vM2+oqPrhW7NzCiOH9LUMhX/jHxdbqj9+NzlIZdVyn1O6OXC7ZA0ILt9E3fxhjbFmXq371ws9jtKrZUsYmcDQnyADjMkip9oXQcOUNtO3itUq2ZHOsFsAyCFuwhXle8OI+MV6+u78nZfy+dOtxdVKuLLVQC9j/JcN3H0up/6aza5EX6+8wcJv+oLFT/uBBOELRgOX7mmGZ8eUsNz8+zh5BB94pSor8lTHA6wFw0TrvqnrnKlU9kMVe8YbYAlAqCFizl/XFCBWPn0gH66plDGac2olPou9417HAq4IwWq5ffOVmp03GOdslAeSINoFQQtGCN1bMVz+K3O+g7F44lb3GmqMirCMKeODyOsMSKcx1VW09QB724mTIa44CBC4aghTIxsvc4jf1rG3neGzqGeUv6ih6svLEgkm7tlgeIIX4+wZ1xk13/Wv4mJaZlKeXSvf5mgL+GoIVSMU4dVvR1X9XSF77Vhx/Zejsj340GkU4eLSuVRld8qLToPVfLHJXFNHmHMMC5IWjhgvFPHlHdh5YP17ctHC66rm1ESV4PGy2n57n4ccpQaIXW9NrxzkZX/0SX34yDCM4JQQvnhRs6Ue6BOO9PbzbXF0wYyw13N5Gs8aIpWq9/8g0nkDP+a23Qy2+qF1+zjZXPcJttAH+CoIW/5N2zQuX71zXVp90+UuwOElslXwP87gAllH9LHfjq50qtS/aq6Q1wORj8CYIWzu70cTI+f6Ryyb4lN1DWtsGi69pSVDGH8f8gjqIScSgtU+p2nOZMbzVTGflavtkEgKCF/8Y9xUTuwhj3K1d343t+fVBEa1NRjuZhgvMlhxNOi/eiFUrmyEccA17cRDGJbkxYAwha+BO+cW68Z+3XlxhLJ90kdgeILTxvOAi+k2L7WOv3zDS1QeYaVjdT95chGiFowe+HH8i7f349Y/Urow2v3ldU5NSFGCYoGzlWu0VNqfK+kjH4c/XykYepcWN/C0QVBG2Uk1cTGPtWJXpfGjCI5x0aJfqvzcL2ttlQxSmPCmkVq9LgNecTP8+juHJepuA9LJogaKNVXjYZRzanuCePbkfZ258Uldb+BrCTONy+YE17vOK68t4NrHbbfHLGmi0QyRC0UYgX56veKaM6Gb9+Mpgzuk6UKvhbIADkCbODCqeZSq9HPtL6PbnRrEMEQ9BGGf37l1O9v829w9i+aAjzr82FU+LB4SbVtVFpeOm76qWjZ6gt+uaZdYhACNpokL2HvId+S3e/O7Sn4i25m7i3rqgiYINPHnweUp2rDWfCCzFjFyxSkiufpuR0fytEDARthDP2r000PhyZ6Tm08VbRg71KlHCiKxRxkuuVfaw1vXq6OuydX1n5jBJ/A0QCBG0Ec79zw8U8a+vt/OCGa4hRVVHCqe5QxklOvbhbadBltlKvw4tav3HZ/gYIdwjaSGIYxLP3aiVL36/MV0y5gZ3O+qeoyhNdGCYIL25SHdvVxNTxat9n5rGLL89mydVxoIYxBG0E0Vd9XtF4fUAf3UWjxK6cl0DzNUC4ksMHi7VqaROUoV8sUep2POMvQ7hB0EYAY88qp77k3Ux97Zc38cLcHowoyWyCyHCYpdWfpdTrPEnt9/R6JTkNs4OFGQRtuCouJl6Sr/GJAzPcJ7bfRyeP9BbVNGKk+r8BIoybOB2h1NqTXA27TaS+z5xiCck6OTAqFA4QtGGIF51RjNfur+ld+nYfnk53i1KGvwWigC6O2A3qDnpDGfPSd9qAe7LMOoQwBG2Y8S6dFGvsWDpQXzFlBCNqK0pyGRmIPqe5ovykdbv7TXZRt6XaxVdhdYcQhqANE3zfWkWfeltz77Ht9/LCU90Yo4pmE0QvefjuZylV5zjSqo1X7lywn7kScECHIARtiDOydzt5zoFa7pcuGyN6sMNECSe64H/JoUr1nnYMe+drpWrjgyypEua/DSEI2hAlVznwfP9CNdq8oL+xc+kQUWolNpG1AGdVTAYtV9oMnEZ1O33hvGIMLgcLEQjaUPTL68zz89dXejYvfEAhaiEqiWJDyML5kEd0DmmxPzmadnpe63bXWqrfw2yCYEHQhhDj0MZYY+M3Lb1fPzyGvLq8bTZBlBGwUBryWttcUh0ztFtmvKNmNN/OKtWRt/hCECBoQ8GhDYq+bVEDz+zHb6DCU38TlWr+BoCyE0f4ZqVKk7ccnW6eq7QZcJBSquCgDzAEbZAZM4cneLdsGm4cXDdYHBFtRP8Vs2uB1eRBnscMWskadp3kbNPpM+oqF9WAQEHQBgF3FxE/dTjR+9nY1sZvs54knbcUASvXNMEwAdiH+4YTCsjpmKNe9o9X1S63bGKptYuwfpn9ELQBxjd+o3q3L+2kf/e8vJJALuddztcAEFiHxdv6VG3IWx9p1VtspdrtEAQ2QtAGyrp15P3mzQwjd85w4/Tx4eJFLlc5QFcCgklea7tCSb9omurp8Jk69vlcqoDl4+yAoLUZL85j/PSxxJJxXfqynCN38Bhqwsg3TAAQCmQC5LFCWkON2j/luuvrleRKLGJYnddSCFq7lOSTsXV+snvBxHZ864LbGaOeoooxWAhlRQbRx2rnWz5yNu65mrXqheV0LIKgtYnnk3+0MH56bZRhUC+RrnIZGYQshAM5O9gu1XDOVEe88Z7aZdQBsw5lgKC1EPeWMGPV5+W9C14bbhxaP4rpHqw2C+GJUzHFJa9RKtd/Sxv8xmyW0TyfabjysLQQtFY4uZeM43tSC8dfc7Wqu+8VXdcmoooTXRAJDJEQS430Ro/HDnt9nVK16WmKx8RxFwpBW0Y8e2+MPuPGzvrmRYO5lwYQw/ywEJGyFCfNVFrfMF0dOulX5oxFcFwABG0ZeKbdUUnfveIx2r+2hwhYOQ6LxRAhksnJxfey+l3eV1v0eVe74m7MDnaeELQXiB/byPja+dX1Lx/up1PJ3eLvrxrDMAFEEREZHqaomzXV8bIy+tPvleqNs6l8HbMV/hcE7QXQN88vZ3wy5Er9yInRYreD6MXi7ABEsyKxzdIaNn9fGfjhCqV680J/Gf4TgvY8GKeOKN4ZY9oY+9bcRjn7rxSlNH8LQJTjZHBG+5SMZnOoSqMJrlHTd5st8AcI2rORy3kfO+Dg3z1Uxb114RjKzxkuqiliwzgswH/ziCQ5qsZVek7rePNXrN9Dx5kzDsvpmBC0Z+H9+LHq+odP9jZq0yhcrgVw3twiUn7Wrho7idXPnKM163XarEc1BO1/8K77ymmsn3OFvnzKnYyM9qIkl5EBgAuTyxNTZynNer2vXXb7L2r1VlHdu0XQmvjJI079qUsv8ug5/6SC3CtFL7aSKOO2WYDS84p0yaLk9JmulEbj2T1fHmOxSVG5nE7UBy0/eUgz9vxS1/vZ2P48Z+/dolTe3wIAFtquNLzsVbXrbfOUxt0PspjEqAqeqA7akrlPJ9PuFUP5xnk3iN3WYnP5GgDADnliW8baj/iA6neZ5cr8m8dfjnxRF7ScG0SbZ2re715s59218V/kdbdnRMmiCcMEAPaTkXOM4sp940iu84p683tbWc0WcomdiBZVQWscXO809q1p4Z1882gRq9eJEk50AQTPCVId7znu+uYDVrH2PqVi5C6HHh1Bm3OA6csm1fKu+mSAcXTH30TXtYHZAgDBJXuzy1n9ztMcjS79Srn64eMifP0tESTyg/a7u8n969KhfP+a0ZxRc1GRs2thmAAgdMgQOsUYrWKVLn3CWaX/z3T77f6WCBGRQcsNnUSwJnmXvNtGX/bBP5nBrxDRKu/oQsAChC4ufuRxpnzhuG7c20qTqzYoGc0iYjmdyAvajT8q3v2/NPd8/dDfGKf+Ilormy0AED5287gKk5w9/vWZ2qjbHspoGtZBFVFBq+9Ykup9b+Rwnrt3iAjYZqKk+lsAIOxw3+xgK1lGi8mOO2d/ppSvVuxvCD9hH7S88CTjZ44nl7zV/zKWu/8hXpzXiPmvh8UwAUD4kxFVxOJTlikNL31cu/bZjax89fxwWw49rIOWL/ko1r1jfqa+ctpQhWiAKMX4WwAgwsigOmFwmq5d8+Anzvodf6GLe4RNeIVt0Hp/eKWW8cn9d+nMI5fzrilKmF0LIPJ5RWRt1ZLTPlAGvzlDbX3dMbMe0sIqaI38HMb3rarknXbHdfxU1mjyFMrrYbHKAUA0kdcmEBVSfMp6llD+Fcc/vv9eSUzNp1h5g2doCo+gzTtCxu7lFYq+fLi9cmTHg6IH205U0YMFAF3kwSdakyvfVy67aRW7qEcBOUJvIeqQD1peUqB4P7ihk/HbnBHcQz1FSU5fCADwO3l32T4WQ7OUS+95x9H/pe3+cugIzaDlBnFPMfN++2IFY+2Xd/DDv90oqvJ62Mi7Nw8ALCGSrISpzh1UrclrWvd7Zqot+p5hztDo3YZk0BprPi3nnTqol36G7mGMLhYlDBMAwPmSk9Ms1njcC8qjSxcrNVoG/e6y0AralStJ3zqvjmf1K3dTSf4QUSnnbwAAuGCHWcW6r2vVbvhY7XlTFtWoYZYDL2SCVj+6Uyke16OTmrPzEYqlzqKEqwkAoCxkuOXTGfpev6jFI/FPrN3mLwdeSAStkbU1zv1kmxHcXfAEMUpl4s9lNgEAlIlIOBlyR9SaLYY7bvv6Z1a+esBv5Q362Kexe0UFz4S+d5K74AXGqCJCFgCsJDNFbFWNfes+8HwwcqiRvTvBbAqYoPZojUMbUzxvD7yPZ22TKx5gORkAsJMMu6OsdtvnnfcseJO5EgK2okPQgtY4viup5MlW41nxmWFiV162hZAFgEAoohqtHnPdOecNlpwuZwizXVCGDozdK1PcL19xvwjZm8SuPOmFkAWAQIml/WsedL8z6Gbj2M6ADCMEPGiN/avj3JNvGsVP7LvNLAEABFo5Y8eS+zwf3tiX52XL1VdsFdChA561XS1+rssQKjj2kujCpooSerIAECxyeppDrGarwa5/zl9G8eXNsvUC2qPVX+/TjhUce16ka0Wxi5AFgGBi4kcG37/mDX3abfXMmi0CFrT6yunp3vxjj4uHWMMLAELJRZ59a8fqO5ZUMPctF5Cg9a6fFeOeMWYMFZ3qaJYAAEKFkx/f2d/99pD+xpHttkxcZXvQymkOje2Le7KC3BFiN7wW+gGAqMCIUujMofuMHYuamyVL2R+0s56oaMx/5VbxsIq/AgAQekTY1vbOGHM3LZ1i+erZtget++eP+opnICeJAQAIbV5PD8+qGZebe5axNWgL3xxQlecde1A8xExcABAOEj2bv7/fPfeZNHPfErYFrXffalU5vu1m0R3HVQYAEB4YMcaoubFjSQ8j54Bl+Whb0PKdS+vyw5uuEn9w9GYBIGzIE2N88/wePHuPZesT2hK0/MBalWY/dLX4AzcVu+ILAEDYkL3a7vR27zZct2aCL3uCVtcr60VF14iHobfuLwDAX0vw5OfJS1It6SjaErTeOU/VFV/a+vcAAMJSN33uU5acFLMlaI3N8weIL0n+PQCAsJQssqy/+bhMLA9afdvCGOJ6L3MXACBsGXknehsH1sWYu6Vm+TSJJS91a29s/XERw9UGgSVXRYpJJpZQgSg2mUhziM0lygpxr1u8YrxE7iLxD5RHvOAkUdFp8xeGEUUjOZUdk88vVnxgUuVzFC8z8RzpD8+Ry+dWKJ5jcb74RcFbqgkiAKed6pX3XO8Y+NI6s1Iq1gatp4RKxl/5mLFj8cPiuLd9Mt3oJUJVBkxSJWINupJaryOxyg2JxYuQdbh8gcQUET4ygOT3ckNsXPyni48cIoxEKPGCE8SP7iBj3yoytiwgOpUl2kp83xcSZKiK58hqtCalbgdi1ZoRS6tLzJUgAla0iZCVbyK+N5j/eo4e/3PMzyGetVUuAErGrmVEJ4+IuniOCF84X5xOqZePuc9x/cvv+d7YS8nSoDU+f8zl+ebJWVyl7mJXHgFgNdGbYw27ktbxb6SIrywm0WwoPe4uJGPnMtKXTyFj8/dEBTlmSxCI8GTVW5DSrDepbQcRq1TPd61NmYlOgL5jCemLJornupQo/4TZAHBOhuKmtxxjvrqHtekrPjaVjqVjtLqTahqq704whKwdUmuR2vMRco78gNTmvS0JWYk540ht3J0cI94lrd9TxCrWNlsCTHWS0m4IOW6cTI6eD5OSVt+akJVET19t1I0cI98Xz/EZYhVqmg0A56QYDqotcq1MNy9YGrSim11THBYp5h5YKbESab0eJa3rbcTi7fkrZq54UjveSGqPh4iS081qgIierNpusAjBcaRUbSJemda+NH1EaLP48uI5jiDtumdlwV8HOLcM8VKRq8KUmtWv5hoibMuZj8FCare7SO0wQvQ+7Z3Sl8meX7uhpLYfLl4dgRtmZ/UzSb3mX8RSqpoV+zB5krD1AFI63WhWAM4pg7K2pvrG/kvJsqA1TuxV9F3Lq4jkjzdLYJWkdNI632Ldx+i/wDSn6PWNJJJXMASCI5bU5n1JqVQncM9R9qDbXO+/QgPgXBgl6V/+K40Xlv5KHcuClh/bFWNs+VGubGv5pLnRTmneK3ChZ1LS6pGS0cLcs1lMov85+q6SCAwZ6Cy1JrH0RmYF4KwUg/sWLij1RzwrX9mxGJ+1AVNJbdrD3AkgRSWlyZXmjr2YCHWWWsvcCyB5TW4lebc4wLlxRumiZ1vqvLQ0aMWGz2FWS04jlpIRsI/Uf8QybFk+6b8oVZr4PsoHmrzagiWV6RwHRA/5Qin1p3UrX92yW13mW9Xgz5g8++8KzrA3Kyc+LZXhIu3zVr6a+SCwfCfFXNZcIgcRTx6Epe7tWBe0TKQ9owAcldFF3u3FHEF6/xJBRPJuM5v57mgLBnkJmejVyuEZgL8gD8IQCFp/txrzG1gtVvS45O22QcBU8d4ZY/8kbCwmwXwUBHJIJgjDMhBexCtEHoQhEbRgB1X8+ypB6nHJcVObr9sFiAYI2hDHZMgG4USRj+zpBSLk5RAFQARD0IY6OWxgx+2o50UEbSBOhsleO0AEQ9CGOt+JmiCNIcoebSCCFiDCIWgBAGyGoAUAsBmCFgDAZghaAACbIWgBAGyGoAUAsBmCFgDAZghaAACbIWgBAGyGoAUAsBmCFgDAZghaAACbIWgBAGyGoAUAsBmCFgDAZghaAACbIWgBAGyGoAUAsBmCFgDAZghaAACbIWgBAGyGoAUAsBmCFgDAZghaAACbIWgBAGyGoAUAsBmCFgDAZghaAACbIWgBAGyGoAUAsBmCFgDAZghaAACbIWgh+BgzHwSBoonfH4cB2AuvMAg+Z5z5IAgUFUELtsMrDM5OBpDDZe7Yh6kO81EQyN50EDvUEB0QtHB2ImiZI9bcsVF8ivkgCHy9WSQt2AtBC2cnP1bHJZs7NhFBzmJt/j3ORXOK56mZOwD2QNDC2YkQYuWqmTv2YKm1RNjGmHuBx5zx/rAFsBGCFs5OcxFLq0ek2hdELKOpr1cbNHLYwhnE3x+iAoIWzoopKrH0i4gq1jYrFhMf2ZV6nYlcolcZJCylKrG4II4RQ1RA0MI5KTVbkdqqv693aynGiDXoSspF3YipwRsjVSo3JFa1iXiEE2JgHwQtnBMTAat2uYWUltfKPX/RCpXqkdrtLlIq2dRbPl+ak9TOtxChVws2QtDCX1LKZ5B23XOkXn0/UWIls1pKisPXi3WMeI/Uxt3Fvmo2BI9SrxNp/Z4q+3MDOAvGOTcflo2+5Yf67vHdp4g+TzuzBBZQM0eRNuAFYnHlzEpw+F4nhk487xgZW38iY8Nc4sd3E7kLiHtLfG3EDfO7BSYCVFXFF6f/qoJyVUmpn0lqo+7E0hv6aiyYt97+B657iZ/YR/raL4hvmk/8TJb/eYn6v5+XfI5/xOVzNh/LB752+VV+v/lV/r3JX//vr3/YIJz85Ho1uw9LSM039y8IgjbEhUrQ/hfxuuHuIuL5J4jyc4g8ReJF4PG3yQCVAeuK830kZ/Hlickz+2FyqyvXxRtK/nGiPPHcis/4wpbLYPS6fc/737zF/x+Ysi73ZbiK7+OGCGj5/TJ8dfFVBrb8+5H/L/l98vHvQS4ec9++/D7/95Dub+NesW/8se0P3yv+/qkkz18HuyFoI1nIBi2UmS8wfUEsglUG8+9ffTXZJoLWVxP7Mmx/fyy/ysAVQc2LRdCePETGkc2+Txp0Yo/5fweLIWgjGYIWzuX3IR1fL7r4NBnbFpL+0xvE9632hzVYpUxBi5NhAGFMjnPLy+OYK46U5HTS2g4mx21fktJuqDi6cWtxqEDQAkQYJbkyab0fI9aom1mBYEPQAkQglpJBapdbiZLSzAoEE4IWIAIxRSGldltiNduYFQgmBC1AhFISK5GS1kA8CP5NIdEOQQsQqWTAVgzuNJTgh6AFiGDySgTLJwSCC4agBYhkcgpKDB0EHYIWIIL5pqDEKr9Bh38BAACbIWgBAGyGoAUAsBmCFiCC+aZ3tGjiKCg9BC1AJPOUiKDFJOPBhqAFiGTozYYEBC0AgM0QtACRDNfQhgT8KwBEMocTYRsC8C8AEMGYDNkQWm04WiFoAQBshqAFALAZghYAwGYIWgAAmyFoAQBshqAFALAZghYgkvnWC8NhHmz4FwCIZPIaWlxHG3QIWgAAmyFoAQBshqAFALAZghbgP3FOvKSAjGM7yTi08fy27N3EPcXm/wDgzxi3aGJgfcsP9d3ju09hRO3MElhAzRxF2oAXiMWVMytgCxmu3CB+8jDpS98nY/P3RAUnRV03v+EvKBpRcjopzXqS2m4IsaQ0/4QuQWbsX0vuCb2JTh02K1BKP7leze7DElLzzf0Lgh4tgMCLz5C+aCK5n+tE+tyniO/9lfjxncSz95zfdmwH8R2LSZ85ltzj2pOxfo7oFRea//cgUsQhjqsOgg5BCyB4F71D3q8fJTp50KyUQc5+8swYQ/q6r4jLNbsg6iFoIerpu5aT/v1LRIUnzYoFcg+Sd96zxI9ux7pdgKCF6MaLzvgCkfKzzYqFjmwm74+viZxF0EY7BC1ENePAOuJZW8096xnrZhG5Q2CsFoIKQQtRjR/fRZR3wtyzQUGO//cIFtVFWDMs+PAvANFNjst67O1x8mBeWqWouOogBCBoIbrJ8VPbh1AxRhvtELQAtkOPMtohaAHs5owzH0C0QtAC2CwUbsWF4MIrAADAZghaALv5lpOBaIagBbCbnNkrWFSH+Akn44INQQsQwZiqEcN1tEGHoAWwm+Y0H0C0QtBCdHPGmh+vbRSbbD6AaIWghajGylUlirMxCBMqEEuqbO5AtELQQlRjGc2IpVQz96ynNOouesxBPBkGIQFBC1GNpdYkte0QEYY2jKMmpZPa5Rbxm+BkVLRD0EJUk3dtqZk3kdLkSrFj4eEQk0TaZbeTUqM1zvoDghaAxSSSeu2zxJr1tObEmOgdq93uIrXzzeL/nWAWIZohaAEEJf0icgx9h9T+LxBVrOvrkfru6JKXZp3PJq9eiEshVrs9OUZNJe3q+31LjgNIzKr1jPQtP9R3j+8+RXxIameWwAJq5ijSBrxALK6cWQG7Gfk5xHctI35sF5G7wKz+hfgKpMgTa9VbEHPFm8Xg47kHyf1CF+In9poVKKWfXK9m92EJqfnm/gVB0IY4BC2UBYLWMmUKWgwdAADYDEELEMnkmmGYVCboELQAkUxziaMch3mw4V8AAMBmCFoAAJshaAEimW85dSx3HmwIWoBI5i0RQWuYOxAsCFqASIaQDQkIWgAAmyFoAQBshqAFALAZghYggsm5THDNQfAhaAEime7GCbEQgKAFiGS6jutoQwCCFiCSGejRhgIELUAk88qgRY822BC0AJEMQRsSELQAkQwnw0ICghYggnF3MYI2BCBoQx3HWWMog5ICIsNr7kCwIGhDHPeUiANFhC1AKfCi00Q6gjbYELShzjfGhqCFUpJBix5t0FkZtHIgCP+iVnMXirD1mDsAF8bXo8UnIivIbCv1GJ6VQSv/NZEIFuP5Of4TGgAXiHOD+Jnj/ku8oExEwsqDMCSCVoZskf8hWIXniQNF9moBLlTRGSL5+sG0MlYoEFsIBC2nEsYp39wDq5w8QlR4Uvz94mCBC8Pzsv09WrCCOAh9w6OlYmWPtkj8KeQfBqzkLSZj3xr0SeDCiDdmfvIg8dz9ZgHKQnQij4uDMASCNiG1iKXVOyEe4epoi+nrvsQJDbgg3OshvncVUc5BswJlwBVO8i+y1AehZUGr1miha21vyBIPMaBoMb7nVzL2rzX3AM5DwQnS13whHqDfY4EC9ZJhWcwZFxJDB9JhsZ3xPwTLGB7yfvc88cKT4hMhBhHg3ORrxLviY+IH1pkVKBNOx6jttbnkijMLF87SoGVEu8QfKtfcBQvxDXPJ8/kDxHMPImzhf5PjsgUnSV80kfS5T4k3aFzWbpF9YivTWUVrg9ZJe0kV6S/fA8BaupuMn6eQ95O7yNiygHgxLvCAP/CK18f2xeT56iHyznrUP8cBWIGLDuResZUpaJmlvaOcneR+a8Crxv4Nd4g91V8Ey6XWJKV6S1LqdyFWrxMplRsSK8PHGghP3F1IxuGNvpNexo5lxPevJp6zHz1ZaxWqLa99wjH0rRcoKc0sXThrg1Zwv9ztSmPrj7PFQ6e/AvYQ77GqJj6TiM3hIpZUiahcFWKxKUQxicT+3RZjfj+ELXnDirzLS15JUHyaKD+X6HQW8fxs0ZP1+IPVN3EMPkhaTcTjfvXKe0Y4B7602CyViuVB6/1pQoJ3xj92iRdG6eMfACAE8EJa5mh3T0/tzpfEO1zpWX3VAWmXjckn1bHI3AUACFusct1lWuaQMoWsZHnQ+pSrPE38jJksACBsic/6HqrTZCq1aGFWSs+WoHXeOnOD+EOuMncBAMLRz67RM7eYj8vElqBlBh1TPDRfPESvFgDCkUfz0FTx1ZKTWPYEbUaTErXHffM5p51iF6dCASCcyGsEViujPlzCFGuuUrVnjNYZS1qdDqvVpHTZq8Vk4AAQNkTPsJClNfyCarTaQ4yZ1bKxJ2ilVn28asP2k8SjbH8BACDkyU/gm9WOQ+aqGRdbdueHfUErqH3HbaG4lE/EQwwfAEDo4+RRaredoXYYKYc9LWNr0FJaA+5Mv+RV8QjTCAFAyOOK8qurVuZEJaWapfNL2hu00pipR1nTnm+Id4ocswIAEIqy1UtHj6MbXiwx9y1je9AqCalepcW1cw3uu9wLywQAQCiSJ+2na5mjlvp3rWV/j1bQOgzNdvR66DHSXBvNEgBAqNB5XLkftBunvMaqXWzL/KMBCVqmOsjR7+mdamrNx8UuJgYHgNDB6aCj8ZUvaB2G77Xqutn/FJCg/Z3W54nvDEYTxEOsKwYAoaCY4ss/q3W7y5Yhg98FNGipVf8Sx6gZb/DY5MniXaTIrAIABB6nAkqs+KLz3h+nUZ32tq5iGdCgld1yxyWDTjiHTnyaEip8Kkq4vhYAgqGQVa7/nvP2r15Xqje3fd0fyyf+Pl/eNV9U877V/31i1F3sWnOfGwDA+UiuMsk5+pNHlHqZWWbFVkELWvn76r9Mb+CdMuoZchf1FlGriTICFwDswsUPD49N/NR1/7J7lYymZVpw8UIEdoz2DxgTydpuyHbHjZPvpMSKk8RfQLHZBABgh1Msrd6rznt+vDuQISsFrUf7R/rqzyt43h18Pzc8t4gubbJZBgCwyhlWvuYjjpunTFXqdw74JaYhEbSSsWJasvf9kcMMpt8vevhVRQnDCABQFr50Ywbt0x3q47GPbvhUqdrY8ttrz0fIBO3vPHOebKJ/88wL5HV3Ebtx/ioAwIURyZZH8RVmOwouflq76/VtdPHFZkvghVzQSt5PH0o33h93q1GDhojd2mIL2lgyAIQdeU3sNsXhmsyGv/++o/3Qk/5y8IRk0FJhIfG1y+JKVr/WnG+c90/G6FpRxVACAJyTiLNi0ZX9VO025m1Hy75rWcPLQmLdwtAMWhP3uokX5LrcT3bqSVm776RYainiNsFsBgCQZIidIZXWKQ27PeO4bdYi0pxepsorRkNDSAftv23aRPp371U1Ds0cpOdn/U1UGorNntkfACCcGCLCfmVVm053tr70U6X748cpJsVsCh3hEbQmvuUnRd+1rK33q8cGk0JDRO829P5GASAwOB0ngz7WRk2ZzKo02arWbBmy812HVdBKcjiB8nNiPTPva2qsnvYk6bydKMvhBJwwA4h8MrBOkTPme+XqB192ZI7aRMlpxYyF9uEfdkH7R8asv8e7N60fZOxZOURh1EGUXP4WAIgwMqgKxE8rlYuv+cjVKHM6XfFA2KzYEtZBK+lHtirGruV19M/vH0iFubeKUoa/BQAihUipHSyj+RvaZbfPVZr12qckpYVVcIV90P7OOL7bZWz6trH3s7FjyFvcS5TKiw2XhAGEK+67HjabXAlfODanvcG+XrxLSakq1/YKOxETtP+25F3m3jDncn3D3LGM0yUiauXcCQhcgPCSQ474n9RG3V9xdP37L9TkClsn5rZb5AWtwL0l5F34ZhXjt3l9jK0/jhApe4koI2wBQp+8wWCF0n74R0q9zl9pnW8K+l1dVojIoP2dkXvIQaePVCt5LvMO5nWPFFFbTpRl4CJ0AUKHnCeWi6PyFLmczzozB3zGer1+hMWX95rtYS+ig/bfDm5m+sd3NvEc++0fPP/ENYxRZbMFAIJLBtABVqHmN45Ktccrd87bTY7Iu3goOoLW5F0xPdbYvayvvnCiHE7IFO+gmB0MIFg45ZOiLlB7PvS20uDSJWrDrhG7YGtUBa3ES/IV49tHqnl/eLUXL6b7RNhWN5sAIDAMEbJblXh6RR3w5rdq5m1HzHrEirqg9TG8xHUP429fn+Y5vPk+I3tPPxG41UQvN3RmoQCIPPJE1yGq2mQKNen+uqvv06eZ5uIU4nd1WSE6g/YPjAPrnN6fP2qv/zJtJMvL7idKWEoHwGIiZY6xKo2/1Bpd8ZHa41+rWGLFsLmrywpRH7S/0zfOq8A/7NHDe4ZGi902YkPvFqDs5A0Gy7SkKuOVu2YvU2q0OuUvRxcE7e/E3wPPP664F7+fqv88ZQA7vnMsI0oXLU7/NwDABSghzbWNyld/Tev3zBy1YdcclpgatWGDoD0Lz0e3NDEOrL+F713Vm5hv/gTMDgbw1+S1r3vYQZqj3P74K47ejx32l6MbgvYcjMObEoyJI9p5jqy9jSnUQ5TQuwU4u2Jm0Mdq877TlEq9flUGjiwiBf0TCUH7V04eIf3o1lT3u4OvYkVn7uae4kaMUYzZChDVRHrIe7qKWUziOopNecF17w8LWUKFM5RQwfwOkBC0F8Cz8M1UY8IDo43y+UMYUR1RcvhbAKKSR6THb0qlqh9qg96drja9JiLmJbADgvYC8amTVd2zuL2+fPIg8Tc3SJTw1g3RRobGYYXoU6XXw1O1Ru3WUz05sgZng6AtjYKTZGTvTvZ8PKolP7TlGdLd8nIwuVgkJquByCUHCeTJLs31jdKiz0uOq8ZuYFUvzo/EuQmshqAtI33/ujj9vf4DjWN7biaDWouoxasOIg+nPPHzKiWj2UTH/Uu+ZLFJYT0/bKAhaK2wbzHpmxfVNWY/faPu9Q4UYVtLVHG6FSKBDNQdRrmMt12db/pKvWTQAarcwN8C5w1BayG+fWGsZ/UXrYyFb8q1ywaKDZeDQTg7LbYZ2vXjP2T1MteqNVtHzPywgYagtRg3dDlpjep5/erLjG0LHySdWooebpJowvgthAM5EnuSmLJCueyORx0DX1hPqsMI9eW8Qx2C1i6FJ0hfMC7Ns2bBQH54o7wcDMvpQKhzizhYplx02XRHzbYzlf7jzph1KCMErc30A2tVfmhjI+8HI0eK3WFiq+hrAAgtWRSfOsEx4p3PWEbzfUrF2lE1u5bdELQBwLlBlH/C5V048WJ93nP3kqf4StG3xeq8EGxymCCLxZWbq+2u9Loy4asdrE6jsFzOO9QhaAOMzx2nuXctH2xsnDeMMWovSvH+FoAA4nRKvM0vV9sNm+C4qPsC6jgUPVgbIWiDwDh9VDE2fVfT+8P4nvzQxrtEt7a22QRgK3G0ywN+jdK057tqq+vmqW0HH2YaLo6xG4I2iPipIw6jd2ZdT9MTY6j4jFzdoZLYcHoXrCYPcl0c6sdZfPmPneltXmNjpmWzhAq4XCtAELShYPN3imfZpA76+m/+QZ6irqJS3t8AYAFOWVQufS6v03Gis9/TG9T0BrirK8AQtCHEu+yDCsa2hf2MlVNHiN22YsPsYFAWxSJkF6vXPDBJqdNhntq8V4FZhwBD0IYYnp+r8cl3VPFs+nqw4S26R5RSmH84AVcowPmQVxIYnLEDijPmecdVY+ewqx44ypyx6MUGEYI2RPGSAip8u18DNWvnXZS9T85BlyGiFmEL5yLHXPexqk2/5hnNX4y5ecpxfxmCDUEb4oytP8YZu5Z38c567DaxK8dvcTkY/C95lJz+qXbp6Klqq+tWsiqNS8w6hAAEbZjQ50+opk+98xrdSf8U3dr6ooTeLUjy+te1ajGNVx5dOl+t3ynXX4ZQgqANF9wgruus5Ov7k2jjgnv4oY1DGaNqogUnzKJTCSe2l9W8ZLzWYcQnaueb85iqiSMa77+hCEEbhozTRzXv88MuMbYvGMZTqL84tFLNJoh84h2XDrAs+kq5Zvhkxx1TfjPrEMIQtOFq714yDm9IMabf2tlbcvweYtRBVOVyOhC55MmuOY66bV9jbR5Yq7TskkcpKf4WCGkI2jDH83OZvnVBee+sx/rRib1jyFvSUJRxT2VkKaDY5PUsOf1V7Zbp36uV6uRRjJziGMIFgjaCeL5+tKbxw1N38mLqLXZril4uerjhzUuctimOpGnKsNc+1DqOPGbWIcwgaCOJ7iFj/fQ4vuzLdt71s4dylYaKKk6WhSFxVObqBk11XD5mhrNe19Xskn6YlyCMIWgjUX4u8cKTSSUvdu3Gi06PZUVnmonebYxowSnp0Cbv3iqk+Aq/KtWbPawNe/c3lly5gLlw6XS4Q9BGOH39nFT9s78PMY4flvMnXCw2zdcAIUUchm4ml5Gp0vhjbfQnnyvVmuSbTRABELTRYMc35Nm8orV79jNDFJWuF93ayqKK3m1okHMT7NUdjo9irnt5qlqr7W6qK5eXg0iCoI0S3FNMxpGticY345rrG+c9wD2F3UTSyvFbBG5wiAOP5RvOuM+1bne9pbYZsEnNaF5stkGEQdBGIV6Q6yh5+fKBdHD9KHG4txYlDAIGjjzgTjGdfmGt+rzsvOPrBf4yRDIEbbQ6upX0tV/U8iyc2J9OHhklKnXFht6tzcThtkKp3nqKo1mfWUq3249SAm44iAYI2ihn7F/j0LctauWdee8okbIDRCnR3wKW4pTDGX3gvH3WJFa5wS4lvQEWQ4wiCFoQvSzxGpj0PvNu/qC1ceaXpznjbUS5nNjQwy0beaLrBHMlzFWLm7ykjnh2K3Xuwhkmfok6CFr4E2Pmv8p79q0cwLctHCx224uoxQ0PpZMvQnaJcsmg6Y66HT9jl9/hMesQhRC08F+M47tVfnhzHc+kEYN58anbRP+rotkE52cfq9HyOa3XY98qdTscYgmpWEYmyiFo4az40U0O4+PrG7oPHLmbCk9dLT7xpokyPvf+D+IokmOuB1ly5S8ctapNUG7+6RCLScQ4LPggaOEvuZd/7KCtC642Vnx0m4jZ9qKEqaP+iFMOxcR/R+2GTFTbDvrFUb8r5iWAP0HQwnnx3fCwemZ1/ZcZPYyN3/5dBK68nTfayXHXFWqX0e8pjbp9q7a6LsdfBvgzBC1cEF6Qq/H3bkgr2bf2Xso/cT3jVFGErpyOMVqGFOQB4xE/HWNJ6S86m1z7KRv8XA6LScAwAZwVghZKxcjaorrnPNmati2+lZ852jNKTpjJo2UvS79oDlVvOtE14oPtzBlnNgGcHYIWysS7YXYS3/VzL++3z98kwlYup+Pyt0ScQnGkzHcMnjCB1Wi1Uq3TvtCsA/wlBC2UGXcXKXz2s1U8C17px70FY0WliihHxOoO4uhwM0XdovLYl9URb/2gdBqGVQ7ggiFowVLud4Zn8KwNY42Dv8nhhOrm+G344eTmjHYr9TpNUy66/HVH78fzzBaAC4agBcsZhzbF6p/e2FHftmqECKzrRCnW3xImOGUzB01XWvaZrt3w3lqWWBGXa0GZIGjBHjk7yTiys6L+ao+rdSK5HHoTUVX8jSFLFyG7zJFceRy77dOVSlq9M5SYbjYBlB6CFuwjXlvyh7747QR9xbRBfPfP/xDVmmKTp+pD5XIweQDkkSt+Lcto9rrW5/FvlYaXFzMW6u8JEE4QtBAw3i/ub6DvXtnX2LGku9jtKJI2mFcoyFf+afF1mdp6wPdqvY6fqpffle1vArAWghYCyji2S+NHt1YvmjgoU/MWyvlvM8UW6Ft6ZaD+YFRuMt01YNx6pVbbLJZUCRO/gG0QtBAUvPCU+GzOXfrsp6rqW+b35UWnr6HcQ7WJ+UJXTj5u1Wq9brHlEafTLK3uZtJcX2pdb1+gtB10ghStmMVgnnOwH4IWQoKxd5VTXzqpgQjaljz3YAv9t3k1xOPKjFO6+FpefIsc1/2rS8XkbbByHthjnNFx8WuPKh2G72DO2A2itlbt8/geJbkyeq4QcAhaCDn85BFV375QhmtF89beFFowPtGzZ20lrlCSCNAYkZa+Hq/CyC1ewSWKQTla62tzqeW18nrXE6KWI35tttLy2pMiaPEih6BC0EJ4yDtOvKRIEz1VVQSoyFr/VQviJ/kK5qLgZXHJOsXJFXgAQguCFgDAZrhYEADAZghaAACbIWgBAGyGoAUAsBmCFgDAVkT/B6HrRktGP1I2AAAAAElFTkSuQmCC;" parent="1" vertex="1">
          <mxGeometry x="-717" y="-740" width="86.98" height="90" as="geometry" />
        </mxCell>
        <mxCell id="QPM4C6ns2PmxzMLg4GbO-19" value="" style="shape=image;verticalLabelPosition=bottom;labelBackgroundColor=default;verticalAlign=top;aspect=fixed;imageAspect=0;image=data:image/png,iVBORw0KGgoAAAANSUhEUgAAAQUAAAEQCAMAAACOU5GLAAAAAXNSR0IArs4c6QAAAARnQU1BAACxjwv8YQUAAAAYUExURdTTyLm5pGGyUUakOKKfhlKsQ0GXMgAAAMGdGfYAAAAIdFJOU/////////8A3oO9WQAAAAlwSFlzAAAOwwAADsMBx2+oZAAAEu9JREFUeF7tnQ17qzoOhNumH///H680M5INISTdK9s5TzOALUNPYN7IxtDu3befl35+XhRcLwquFwXXi4LrRcH1ouB6UXC9KLhWU3h7iq9h9UW8fyhYquUULgqWajWFz8u7opVaTeHj6xmSYTGFt6+P70/FC7WYwrtR+Fa8UIspfH19XJ4gGdZS+Pj6MArrk2EphffLx8fH1/f38jnDSgpv1h9A4Xtxv1xKARCMwmV5MiykQAgfH0ZhdTIsOz27g+tyWZ4Mqyg0CHaTsGRYO49eRKGDYOOCJcPaefQaCu+XhMBcWNwnllDYQPiyVLBkWNonVlBoEFAjF9ZiWEBhkwkmpIJjWDRGmeafeQ/BKHB8/L4swzD9xHh2cCULJAKGhmU3itkUrjKh5cJCDJMpbCEwjlxwDF/6ucmaS2F3d6BEgNmwBsNUCgfdwUQAIrEGw0wKu4ExiCQBVEswTKTwdp0J2AEAjgDlkjdPEyl8HfYHjo5gwGIFhnkUPi56twTrHZAvJkFyWIBhGgUbGdvT9EZ4tGYaCMT0d/OzKNig8PURGLbpYA+Vsu8EPJr+ZDWLgg0KLhnfyEyHfwXTMUyiYIOCffdXFND2HgH7JIBy8gPmnJNhUOi6hKmLlAHsDKxs0z+doikUOCgYA1C4Sgj67mV7pt4oZlB4QyKYnISsd2KP2C62Z+aNYgYFDQrIBVJAGUB0p9zIwUwcISdQ+GyDgi+9SOMoF4BhzqBlGn+iNijEwLDTrVywRR8xXOMpAELLBWHoaHAGvV2IYtoIOZyCPz7IPlnIexN/IbGRUEwbGkZTsEGhdYeIwj6rdN0WoZg2NAw+iw8KYf92Lsh2KlBYOeedy2AK/vjADCAH5AKso4Q647FolyfDlFnDWArv30EA9mNLIcz3C03aYcWcPjH2HHiSDARWKtgKvmG8LQHCS33WSA2lYKlwoXe3z9oLKGEcPEdwB4sZt8uhFC5Mhc6/4o04a2IOxIIdjGb0iZFn+Pz+ytHR/Uct9yHkAoynWtsxjL9PjKSAVIDgXRDIgShY0jFZcGltD8bfJwZS8Flj6xJeCoLMp+D2u3ucCBCKxv+J8DgKb99IhegSLBlcUYBXeg4CLZowQI6jEKkAuXv6bxCSBczKsSvtI7J4+PPEMAp+l3TnkQuZCijkn3KfaRm20z9DW/WpgzSMAp4lxUH+UTGQf9ZE0CkagcLKsckwioKlQuZC8+8IUMC9FLMmekYjA+63LjF2gBxFoUMAhf+AIQIuvzmkZSjvF2332AFyEAWfMAWI+IWM/LNw94SguSMtc+GKKPaPTYZBFGzC5AyYCzkwsGbRhB4R37mri9uBockwhsKHp4I4gAS+fpXaUsoFsqDtPo5w5OPEkI9+87lznwsNgZVYBQBF+qW6sDXsJwYmwxAKuEv2DICAJTFYkdqPCy1CS9XQZBjyyRoVnIDXvnkWCEBUIeVC3BjEJBQ7bRmXDCMo+FwhCERGNP+EEH3C1HIBbgOKFhLA8XHJMOKDfWzsCTAXfMWmWAy6ccFKxL0EgMuwZBhAwR4mm3tkRGIQiC2GvieoaAtb1LhkGPC5n3bVSgMULr1+tE1Bg9DnQhQptvgDtoxKhgEUurFRpQewThC+oUwK8gqr9KtFu6RhE8h6Ct4h2nyBpa+ZBtExBIHvmprZZjridnzUu7d6Cv6gDPMsVMp5Q+Cl1PyLRdiO+4Vk4aBkqKdgl/vVcsHlUPKRihtKQVAuaMLQuc5IP+DRmPcM5RTe/XKBAVJamMSANRtJwf3Fili+M4idg97Kl1MwT84AySAAEXf+uUlpU15TMZ1sewfdLKs/1N88IxdIAACk5r+xgMyhbHqksQB7dATHGI25WVZTwGSBuUD/4CASjQNDQsj/+ViYDbUoDw4aH6spMBH6XJDiVctBnyADeESNL30TtaNjXsoXU8BkQSSIAIngETBgEwdfIZhsVkMtChyIRoyPxRT8ewUEYEgQ3Oi8Y2Cry/6NHKKm4z7iUbVHjI/FH2mXykxwEGl/x8HWHoJ6RIAItShwMBwxf6ylYJMFZQJA7BiY78DAWhgaAa/puI+SB8IR42MtBXUIgYBURRD2I3AK4Q91qEU82n5iwPhYS4EQHAGUuRBMaN1TISOnAH8w2iYL3bQhgTAcMGUopYAOkV0C/lFBtofWXQFBuRBO028XuRoLqwd0iVIK1iEwHvjlIoAAhLEzUCZ0GGhQX7SWDLjED/Any7tEKQVco3IBq8yjBgwCoH9WyIX0mcpHCCpIQPVdopICXzh2EMAAAEJuXhC4koJbNKO7R4hsBAH7AUonLFMlBdz43b4Y2AYAqAIGsmGzokfgn4bbYJAinqbqLlFOgTkQNRlArM12A0AI/Qya33wwwBbfP0UW1V2ikoJf9AaDvn9Vvtd87znoJbSJ/56lSY5TaqLSGatUSIGvXYlAMPj9BwMXzLv9FvnoaPJ/jU9wKFfCrgam8sszFX6cv1qA8KVjiSxgyZYyACVDN6d/KpOSN23jXh1jVdwlCilwcIR3rKzdeTBwhX2AYGE/uev9aT6tI1DLVPw3b4UU3LcrMLCggkM3MKi0rZlzn1xTfdwdrO0SdZ+mYQEIggEwoBAIzKLducNAZRt9pUGILexAImBFk6q9V9ZRwCt4CAjIgNaFgDjSPUpvmanwF35TXejKg7VvnOoo5ODYM3AMMI/C1N67necCm7GDx/rDtffKOgoaHF3wLAxuXYpYKSAG/t9IP7G76Qfd4dKBoe7DthBQoYZ7rn5AEHoYtBn2KLW0hy01qNKBoYxCDo4mJoEqV1+awr8jOMiFNIwyDrl4BHtKB4ZBFIAAOMy6uycPNOhdhbMIs6ibYjfLq+M6b4nKKLTBkYJvcHDDkDjQejCwTbZM6VaGUSl29Qd13hKVUegGRyIgAV+ioJAMtM8AM+jmTuraCPfHSweGURTg31crZN73MA4OrHWndNFq53Zzh9ger3yUKKMA96HMBDfORUKoLBCLo3GBrdyxa0LPSKEfHE3uNtdmP2HIP9dm8NrttolW7NKZKzSMQoPg1jv7HuaQgDBsNrsbt2pGI6UzV6iKQnuKkBoDYGAm+OK1ue85mCUNAFdmNzvYiHbh8DiKQhBQQQyQ110uuGQr/aXb2LFrMHxCCptbhEn+tdG7bUCBwgGAg793TIe7e0K4185No3J4HEeBqxYqGFza/cH3MBcSQIwIneFdg+ETUtj+KskUGFgFiuBhIgflgix2RkO9fcbZ1KkLVEWB1ju571xl3GsccPPBwSRXLrns8oHq4wh16gJVUdingisxIBfEAPLKATAZmAvdkND55W7tYISGFzp1gcZRMK+NwxGDHBwOciECxtB1WHXtZRR2kyaXmW0YwrxCvoTtcsF9daY7x9rte1pE1d0qx1FoBFSFFCMVsCEXwpx8olJ8IOx+OgpXU0eT3JOFCTs8QKw08EJOb3jm7m64zAGk7o/diijs37G4AkBioCxULqgABRlrTtt6U3UThoEUega+JgBtkQqHb1+buD/Wrn6+XNhPHaG0TwbNP7bMBYwL7opVmMz1pp4uF25QIAduBIGCdeRCNy4cCSjIo19NT0fhagINEQLWnoEaGBM86O4Rvc/wflP/CIUE4CEZiABL5ULOFw4tE8X1WvkriSIK5uBA8O8IUIf3rAHBBbfUzqqtt/WPUAgMqCIHfFFOMBfyl1OHlpPG1eBQ+CAxpUdE7c6hyAWkAp6m5Av+WuHrVv2Ouj9oGUvB7YuBAFiFSE2CkKtrzyagIA8ejpZJJ//vKqJweKeUf0FwDhsGfOPkIOCNzlj360bbtk7+3zWWQkfAIVCNwz4XrkybkgbX2Lz6hyhsOJj3xsCKlgvpjDXW2LVT7nu6ceH4OcJE76jDeuMQGI7dUkSxHxoQPB2FW7lggn+yCO8JwjuEgYA1eqPBft2r7Xq6+cIjuQDvaKlGwFw4sksljVyjer4Z9NFbFioI+ErXpgg2udB89uuJ/ikKHQf4BwLU8QtLc4S+0JQNoCCP3fqv5UJCiBRIFsyGyIV0CI9qnejp3rLcptAzcAxW0r9QeDaYo73faBPF4fp8uXD0DloKAizSPhk4BD1HmLGNx6ybds2newd9+Lspyh37yg3WWahmj9gZzB1EEYAy8PgJKcDwsZQJWuTdC9Q2MMCSTPYus7qhJ6RwPjAoE2ztQASH8LrxvB0jc7VNwTNSOJ88mt2o03w00CPCsyyq0QXSpq1TF2gChUbA40AAoWqjY2cyG91IEDsi1qkLVEXh/FZJDoQh87Zx5W9l6NAEh2pl0NTv0KkLVEXh5FbpilyQ89ys5N+yyH5Txtyfa6sL/yq+isLJrTL8s94xQCFbEBtoe9EOSG1H3aRpCoUkwDrE2LawvOkAsVNHtLZ26X+fpYzC/eFRFY2DgCR3EC1iD3f3pdcRVd4o51Cgf0FQAnQwzBjXTmhxV5T5AxZ4XHbphRTObhKyH6sQkIWL5mCUDtOwomh7ncd04grVAT3PhQ6D7JMD2map+aaCRxzxst+s1HkrNIdCEvA1GaTgys3JI226ZLiFlMeFt4hCCncGBqYBCiJAk3FnUYFXDHclV1flf8KrjsL5wCAG3MCgE1yFP9URe4FKZaruyispnM4eAwFqMkDlSz+D7p0ijh3R8JpYdNoSFRKl3xtCX/AVFaTKKchrZzVCKgIcYKNyWKikcDowJAYVtK90oMH0TGmvdvvhzQ8UzplKKZwODAGBFQiAAcKwaoLXfofpCpBLJ61RIYXzx8rAwCKFELZ21mn++j9VEtJJa1RI4eafckDhnzDcPVcnYaYEQCEBnKl0WCilcPOXlZLZJwPHEAS8pjHaBoP7qrzuWgp3ugT8+8KKDFC6LS/uJUAnnbJIpUzNxZlAwCtHIhK+mSky+IV0xiKVUjjtEmQA875ArH7nH6qcPptKKdx5+Qj7qJQMKC637gJnqh0Waincu0twZQGx+n0qFHeIYgrnd4nGwDaPxEHOfqHa+2Q1hUfex8eKLEApa79Q6fTZVNzB7r99tNUXJAM4/D/jgs5WpmIKD7x9tAIhGbhk7XFVd4hqCudTBiLwMpPBN3l7XNUdopzCnSmDAKBOydvj0rnqVE3h/CWs+xcG5AIXeXtYxVMmUzmFuy9hIxdaMsjcwyq/5noK9+ePQQKDgrOQuUdVPjYOoHA6fzTXZMANDH5Nof6SB1C4e7MkCBFwFHL3qHSeSg0Ae3azjFwAjCAhdw+q/DZpGkDhsbew6g5eyN6D0llKNYDCnWRIDk4CIGTvMdXfJk0jKNz5XV1g8DxAJX+PSeeo1QgK58kgAr4yGX5FYUgqjKFwlgzhn+uvKQy53jEUzucMvgoC+sRvRscBMybXILb3x0dxcMnhIxpzuYMonD1NmHdsIPFLCINSYRSFh/780UML5PARjbraUZ978p4BEMDBq9+MjqNSYRiFk7sl3QeK31DQR9drGIWTu2UHwbbHe8SYuYJrGIXbA2QHAbkgj/elDx6gcRRuD5CNARryeFcjHialgRTu9gmCeDQXiv8PdTYaSOF+n2Ahl/c08kpHfvaPfYGHkn+xkMs7Gjc0moZSuNUnEgAi2bwjfeQYDaVws09EZ/AC/z2Suxp7nWM//dbcyVMgtk/5PNXQ/jCcwq2HS88D5MKDFPRxozSYwo3nCQKwzdZHKIy+ytGff29ouHw9QGHgfIkaTuF4aMhkuHy9y+ptDXuUTI2ncDw0KBEeoqAPGqjxFI5nDUDgufBxl8KES5xwisOhIbvEx/udadPwQcE0g8KNETJy4XzaNHimQE2hcDRCokvYeofC+JHRNYfCbQyXz1MKIx+nO02i8Hb1eBnzhc/3swmD/vloTaJwcKPIXDihMOvqZp3n6H7pEC6fn7cpTLu4aSe6fqJgMrx/3rxVzru2eWe6ul9yZDAKN4bHGRMFaSKFPQZ0iA+jcNwlJkKYSuEag08XbgwMMyHMpbDD4MlgDA5zYSqEyRSuMRiFz/frl/FzIcymsMGAXLAecT08ToYwncIOwxdyYd8lZkOYT2HbKTA4vu+SYTqEBRRsFtk4IBPet8kwH8IKCj0GHxaMQj8+rriiFefsnjAxLJhaMuhH5moJhXjf8M1hwTmIwZyXKldaREFjZKaC+sSU12sHWkWBGDwRmAtvfp9YdjHLTmxP2t/2QMlcAIZViWBaR8FuFZotEMTCK1lJ4ecthgXX21+l8NNS4e19wVypaSkFSwYmgmnthaheo25Y0J41WkvBCTxBh1hM4S17xOLrUL1GlgPP0CEWU0CXsP7w9scpKBcWX8Yz5IJng9qLtPpLePUIk24Sf5zCD0eFpQ8RptUUPA+8S6i5SOspoEP8cQo+b3p7UXhRMIHCagjPQMHuEH/9HuHD4ysX/Fb5yoUfjI2vXHAIfz4XngHCE1B45YLplQsuQPjzFF654HqGVHiSHqF4mZZfgCeDonVafwVP8U2o/tt6Ufj5+fn5H/rXzEaHW0WWAAAAAElFTkSuQmCC;" parent="1" vertex="1">
          <mxGeometry x="-711.89" y="-640" width="76.76" height="80" as="geometry" />
        </mxCell>
        <mxCell id="QPM4C6ns2PmxzMLg4GbO-20" value="" style="shape=image;verticalLabelPosition=bottom;labelBackgroundColor=default;verticalAlign=top;aspect=fixed;imageAspect=0;image=data:image/png,iVBORw0KGgoAAAANSUhEUgAAAQAAAAEACAYAAABccqhmAAAACXBIWXMAAAsTAAALEwEAmpwYAAAAB3RJTUUH5gkeDhofhqTKxgAAETpJREFUeNrtnSFMXFkXx0es+MSKCkQFYkQFAjECgahAIBAkH8my2fceJG3CJt1kBZvwJWxSQZN+SQUCUYGoQFRUVEzCe28RFRUIRAWi+XbefbMJAlGBQCAQiP3unXnLdinQGebNvHvu/Z3kH7YtS5h77/9/zz3n3HNrNQzDMEyuBXtH/woTVY9iNR0lal7/94r+uqa/boRJvqWxrf+8E8aqeRPMv3e+p/P96rnGuvk5Yaq+0z/3YRTnD4KkfY/RxrAKLEza41GqZjUhf9bENCRtanzQONH4c4Q41WhpxBovtWis6q/zRiAWmkffMFMYNuhubnbcpEP0Vxr7Ben+FIALjY9hx5NQa0awlmO8Bgy7eWffbY9rsgRmNy129AshZO8HxmMwR4wnS4maZNYxby3a/WNMk2G52N2PHCR7LzDHljdGEKJY1VkVmNukj9WUPrtvOLzDD4ojLQab+utssNf6FysGE20mGBbG+Vzh1h9D8L6DjK+1ICwgBpgoW0ry6YL0JxC5FJwZMTBiihhgtrr39TDJjXvfhrBDjxtsRWk+xarDqnfxk/w7vSDfcaavBB+iJH+ixeBbViM2MgtjNVbs9keQ0Jp4wVaYklrEhunmp/mEJv4Ou73VaJpYAasVK4/4ST5TuPkQTA4ONRZYvdigxH8PmYQLQaoekT3AIL7faOERYLcH9xLVgPgcDTDfdvzf8nGCe95hL0pVg9XvsZlzYZHOO4cQviJ/Fe3m92GDf+7+AlV74K9SY9N3gUChD+5+2q4XXWxY+OC6jAElxi5aUba7hrsPvopUbeMNuHTWj9sTemIPWNygn94EWghmYA+7PsAbwBsQetZn1wd4A96RP8mXBHXQBUI6Het1tUHLc+vz+p1W1CxYMCy8N94lbLMz0NdigYIR4JM+EnDl2B6XXy0WfeNYnGBk0OtuA/ZVH+V/wWIEFSL+Pv0fLclGbeapKZp0AEvQJi4wyvN+N8VHHT+wqltxkKpZ2Dn0YF820wnCsOCAfTgPkuwRLB1esG+Bqj4g4IoxwcGyrSjppWEHkCICLykaKo/8GywoIDFDwD2CwclPmg9Ivky0hwjc+cyfb7GIgAsiQK0A5Ad+Yx8RgPwAEUAEID8gJoBdF/B7ziIBiACpPgBcR5M6gb/Jv8KCAB7iJeRP1RwVfsBjPPX3Yk+ST1HbD3xHkGTL/pG/e6X3mAUAgLlF6FHX4aJ55yETD8DffQa9aSpiIqBMeM995/YZB2/w0flCoTDNnzLRvZM/SvNvGQu/0oNE/MEl+QuPiTHxa+7dywwUQb8TJrg/8iMAXuLCqf6CRdCPs+wdyI8AeIvjMMnGXXH9N5nQu5EfAfAa78SXCxtXhom8O/kRAO/Xxbrcq727+X2KfQYjPwJAPCBM8mmp+f43TOBg5EcAgEZL3PXhKFWPmLjByY8AgAKbcsj/Wz6uf+FTJm1w8iMA4O9LQ+qhFNf/LRNWDvkRACDqKKB/yYCJKo/8CAAQcxQonuzm4c4SyY8AgC+qBJO8YWvBzzYTVC75EQBwDQ6sKxDSv1SDiSmf/AgAuAE/2iYANPgYAvkRAHADTpfj1j1bXP8lJmQ45EcAwC2ovqtwcdOPwN+QyI8AgFvLhOP8QdWu/69MxPDIjwCAryCu+rIPbb2HSH4EAPSw5maq2v15yHPI5EcAQA94z+7vKPkRANDT+kvVHEU/DpLfBfs+MZ2Ns/FwtzURxtls8RbkRnFn5GNIo9gycDi63T9WdXZ/yF/e1XEtEHE2rYVhzQS1uEl6Zyxw9of84q2TWo6zGXPxReOItdZ7iTBnf8jvnHW9A/USz8CCjAC7P+SvuOjsMWXnFWUEgu5131PID/ktuHtijgi8MXkNlhI1PaxB/wXyQ37LhKCBEHyB16UP9OPm0Tc+B2Qgv+VC0H13kqPBX01DYlUvW2kXID9ms3U3qeynkDcoDTbKFoA9yI+JCBbutkymyvc3KU5L6xpUFP5AfkxYfCALPL+qvlzW7v8C8mOCvYF3pAQHy71+gvyYaG8gzn718s7BoA1D9A+Yh/yYQ5mCE4KB/bn/TciPOXMkiFt1z9LZRwMMVqfy7xzyY24dB9SYT3GBO1cGFnXXkB9zzxMwsa3Um9T29l0FYA/yY06LgB9H3JO+awJ8cP8hP1aUuDc9yAb01zLMdfcf8mOeHQe2+hWAGPJjnh0H3jssAMf9DsYZ5Me8EoFu1WDb2Y0vzqZ6TJPkc5Af8zNFmD1wtulN2mNRkEkbQH7MWxFI1byjZcMfehWANuTHvBaBRP3XxUYh0a4au/WDu3b1F/JjA6QH9x0UgcWvuT8/Qn4Mq9V+MK8ZuRcP2P6a6/Ma8mPYJR9cq4dpfe0DH0N+DPsHJ5y6OHRjHCDsujyQH8M+50WcP3CsLH7xJqULID+GXcuN5w4JwIubPuQW5MewLy2IW/ccao23f5MAHEB+DLvRC3AlQ3b+xfXgIu95Bvkx7HorONJ2I0uWTV5Vt0nIj2G3WxQ7khZM1aMrApBLDAC2i/fggL0wV2zfduJLqVpZivOG6FhA96as+OKg4Gp/AP2Xm7ynBkb1bJXGTt9dauyJBWw4MAfvrn6omIUJqqhM057BqtlZBR0D6g7cFjy+KgBtFiOoUgiiVM0J8gLEb5iLSXbv8w90wSIEFmBHgjcQJvmC/A5Bn70XwMIDNgV3o7RdF5ASFB0MjBK1hAAAW/EpuOuLNqM7Bki/ObuBAACbcaZd7UmLBSCQPb7ZDgIArI9Wm1uqVmYDdjtvDEqOnb1HAIAEHPT9tNXovIAPTjQHYZEBy7FpqQC8lHzEQgCAnI62cXuCOEC5+D4p7tKwwICoM6s1fQI63YLEjunSrppAAICk3PWMhfUAYtuFXRYDsbiAELy28BhwKFhQ5xEAICoWsBy37lkmAE3B47mMAABpWLFMAORepU/VzwgAkIamVQVBiVoTPJbrCACQhhPLbgZKTgVuIABAIH4ft+gIMCd4LLcQACAPcWZNOtCk0hAAAKqIXltxKShvIAAAjDZ6vWqRAExKHccoUTsIAEAABioHbtcRAACqyF9zBBi0KcgrBAAQAyAGwKICZAHumAWYQQAAGOXZdVeNWRMDSNSi4LF8gQAAaTiyrBJwhUpAAEaHHcsuAz0VPJZrCACQlrpasEwAXgkeyxUEAEjCqW1Ph4XdJ9CFjmf+AwIA5EWt7RKAY8HZlFkEAEjBebDbum/X4yB/jMke01YDAQDs/nfd/WM168S1ahYXsByfNNnG7HP/83XJ43r54hILDNhd+58t1Cy0UHZD0E+8DAQkpKqsfBas4M2p4LE9RACA7bf+9qx9GDRWU7LHN2siAMBq8tuW83eoAtDgJQIArESgz9Y2k7/gzIHwcV5FAIBtuNCu6bOa5RbFqi5/rLP5zwXgjMUHKkYrTPLpmgDTv+u69PG+fBnYEXcGCK7vN+dp213+KwJwKN3T+kdwVf/FaxYiGDHaZicNLHvs8+tNQKVH/zv46JxLAySc7zs7p3lMc7om1CRf//0Mb69+qFkWqHN4Yzq+VIpUrZorp1GcTUty8W/J/ZvLP+cOrI31q51N70MY7s1j7gf/vsgAOHGvGVh/c066GUHtXEpyobz6uqaq5lwAcZy5PPMAypa++//iyPo4drW0EXSxB11LLvxJ829d2f2/CAB+FuCYgTxOnO8WoGzp9/433Vkf+dptZ5wLCCS7cQbBv5LP/mnn8c9zZ9ZI3Jp2+YKD79iAsqWf/ZsOrY+zWzcI/Q0vIBFNM7FLPgSOrZF3t7s7iZqDSGLRhLIlBv66tTGfHFsjT3vJdRIHEHm2U3PQttTd/417a6Q13csHfw+h5F2lhbIlkj9VKw6ukdOe2quZNAGEEtc+axXalhT1j/NJp6L+n90N6XEAsgakkhX8WxZ2pdbanb972efI0U3iUT/nnyOIJQY7ULeEnd/Ev1K1526M6PfeH1aJErUFscQo+xT0LSXo98rhdbLfrytEWbAMfIC6pZT6bji+Ttb7GpDHzaNv9P90AsEcOtdhvpL/zyBu1fsvhEjUNiSj6QfkF4+DOw5ONg3JaPoB+T1z/68cA8gG2NrVJVWT0Lh/W+is6/ylL41Yf9jNxgeJjHI5iKYfzljR2CNmnfScDcgfQDaafjji8pu1/NGztbJcRn50H8LR9EP0zp+oxbD7AhFB4r4HL1aPIZ1VeAGle3f5A7cLfIYfJP6+e246hXh21P0PFNTxy+V/GHafH/M1SNwos0xyE/LR9EOCLcfte5r8rzxfJwflqinBQJp+SEjvpeoJ3uqQgsQmpcDAVoojaH498aMkf+Szuz+SILH+wVwQqlbV/wPdIf7QKv96FIGPDHA1wb++7nM7f8bvvGJFleqom8OQEqTpR3W7vZoPk/wNTWsrvB9S3A/A5RoxlhI17edOn//biB+BPYvehcALGDkOvSja2f1jLErVrP68z4vqU3Z6G2+H4gWMGvkTZ9J0v2mS7+aTUZLPFa23zWWzJud5Ibs/XoDwiq6qqvK6O/s58+lIbwi8gNHmdfWOOeGACMwhAg7s/ngBiAAiQGeov7yAQyYAEUAEKrzyW+WL0FQHIgKIQKVdoat/Eo47AogAIlDN3RArGsMUNwXJ2SICiMBo74YE9kwk/QKqwFkQ5w8RAS/x3qpJDOKWuaBxzMQgAojA8NN+VtaGRLEKmBxEABEYOjbtnUS/eq4jAoiAn4G/m48Cqm4WIxOFCCACQ0n72d8SznSuYbIQAUTA054QRYXgAROGCCACpeE4GGann/JrA7IHHAUQAUSgHASJmpc3eYn6ESIiAojAwNiWO3lkBRABRMDdqP/XjwJqjAIhCzoKp/IfFPFQBEzBz1RN/MQl+Qx3BRABRKDvWv9faq6Y/jDPICEigAj0jLjmkhWpQa4NIwKIQC/nfkkpvz7jAXR/RQQQgdvmJskbNVctSvIp8rqIACJwI4Ka6xYm2SIERAQQgSvt3xP1ouaLERREBBCBf1zy2TMPp9R8Mv3B30JARAARUIeii33uauZDm9ZGEBAR8FgEjqK4Va/5aqanecgLQ4iAnyJwFsatiZrvFmgFJD2ICHgmAk6Mc5k1AhN6UE4gIIvTAxG4gPzX1QjE7Yf0EEAEXBeBKFGLsP3mCeMZaUTAXRGIHbrgQxAHEWBNQX5EABFgTUH+oR0HiAkgApJF4EKT/yfYPFhg8BMERAQEisA5Ab9SUoSdDsPUCSACkkSAPH+ZVhQLUTFoiQgEaTaPCNyI0yDOZmBt6Z5Ap6HIOwhoRzFLkGSLiMCXtf3GY4Wtw/IEuheI3kBARMBCETgwd1tg6UiOBPQTQASsEoG3Xl7prXbSsgVqBRCB6kUgewYbK0sT5pNkCBCBikTgVH//PCysPkNwjyfIEIERi8BHgn3WZQmyXzkSIAIjEIEdzvv2TtwMRwJEYEgicBYl6jEsk3EkIFWICJQpAge4/NImT6s1l4kqF4FlB9ZRw7uW3Q55A3U6D1eOVVYiVrGKZz910jaQERHAPPUGui3IiQ0gApjn3sACmQJEAPPZGzCXimL1jLoBRAAjSMixABHA/D4WqIbGB4iJCGDEBw4hJyKAIQQIASKAIQQIwQiwxmrDbBeCfYg6TOQbrDRMQrCwSfoQEcA8tqKq8DmPliACmM9C0OlS3Dke7HWegYLAiADmtVewTj0BIoARK2iEaeeIwGtGgzysmbS/YzVhLgQOn+IZ9Ep6FUeJ+jnczcZZPZhjx4T8ftGp6A39CS5xrPFKY8G0c2OVYF6YaTMVxtmUPuuuFW3NfRGEkzDJmvpzr+qvk6wEDLs8LmSTYapWih3x0IHMwkXxObb153qkv04wyxjW65Gh07cga+jd0pBns/AU2pYKw3HxevOWEbEoVlP0z5dh/wd6ZiItJ8rzAQAAAABJRU5ErkJggg==;" parent="1" vertex="1">
          <mxGeometry x="-703.51" y="-550" width="70" height="70" as="geometry" />
        </mxCell>
        <object placeholders="1" c4Name="Person name" c4Type="Person" c4Description="Um Usuário lança informação de fluxo&#xa;de caixa débito/crédito" label="&lt;font style=&quot;font-size: 16px&quot;&gt;&lt;b&gt;%c4Name%&lt;/b&gt;&lt;/font&gt;&lt;div&gt;[%c4Type%]&lt;/div&gt;&lt;br&gt;&lt;div&gt;&lt;font style=&quot;font-size: 11px&quot;&gt;&lt;font&gt;%c4Description%&lt;/font&gt;&lt;/font&gt;&lt;/div&gt;" id="QPM4C6ns2PmxzMLg4GbO-21">
          <mxCell style="html=1;fontSize=11;dashed=0;whiteSpace=wrap;fillColor=#3b8ad8;strokeColor=#06315C;fontColor=#000000;shape=mxgraph.c4.person2;align=center;metaEdit=1;points=[[0.5,0,0],[1,0.5,0],[1,0.75,0],[0.75,1,0],[0.5,1,0],[0.25,1,0],[0,0.75,0],[0,0.5,0]];resizable=0;shadow=1;sketch=1;curveFitting=1;jiggle=2;gradientColor=none;" parent="1" vertex="1">
            <mxGeometry x="-520" y="-2800" width="200" height="180" as="geometry" />
          </mxCell>
        </object>
        <object placeholders="1" c4Name="Cash FLow System" c4Type="Software System" c4Description="Permite que usuários efetuem lançamentos de debit/credit e visualizar dados Consolidados" label="&lt;font style=&quot;font-size: 16px&quot;&gt;&lt;b&gt;%c4Name%&lt;/b&gt;&lt;/font&gt;&lt;div&gt;[%c4Type%]&lt;/div&gt;&lt;br&gt;&lt;div&gt;&lt;font style=&quot;font-size: 11px&quot;&gt;&lt;font&gt;%c4Description%&lt;/font&gt;&lt;/font&gt;&lt;/div&gt;" id="QPM4C6ns2PmxzMLg4GbO-24">
          <mxCell style="rounded=1;whiteSpace=wrap;html=1;labelBackgroundColor=none;fillColor=#1061B0;fontColor=#000000;align=center;arcSize=10;strokeColor=#0D5091;metaEdit=1;resizable=0;points=[[0.25,0,0],[0.5,0,0],[0.75,0,0],[1,0.25,0],[1,0.5,0],[1,0.75,0],[0.75,1,0],[0.5,1,0],[0.25,1,0],[0,0.75,0],[0,0.5,0],[0,0.25,0]];sketch=1;curveFitting=1;jiggle=2;" parent="1" vertex="1">
            <mxGeometry x="-539.25" y="-2490" width="240" height="120" as="geometry" />
          </mxCell>
        </object>
        <object placeholders="1" c4Type="Relationship" c4Technology="HTTP" c4Description="Uses" label="&lt;div style=&quot;text-align: left&quot;&gt;&lt;div style=&quot;text-align: center&quot;&gt;&lt;b&gt;%c4Description%&lt;/b&gt;&lt;/div&gt;&lt;div style=&quot;text-align: center&quot;&gt;[%c4Technology%]&lt;/div&gt;&lt;/div&gt;" id="QPM4C6ns2PmxzMLg4GbO-25">
          <mxCell style="endArrow=blockThin;html=1;fontSize=10;fontColor=#404040;strokeWidth=2;endFill=1;strokeColor=#1a9aea;elbow=vertical;metaEdit=1;jumpStyle=arc;jumpSize=16;rounded=1;edgeStyle=orthogonalEdgeStyle;curved=0;entryX=0.5;entryY=0;entryDx=0;entryDy=0;entryPerimeter=0;fillColor=#000066;exitX=0.501;exitY=1.009;exitDx=0;exitDy=0;exitPerimeter=0;" parent="1" source="QPM4C6ns2PmxzMLg4GbO-21" target="QPM4C6ns2PmxzMLg4GbO-24" edge="1">
            <mxGeometry x="-0.2329" y="-35" width="240" relative="1" as="geometry">
              <mxPoint x="-430" y="-2540" as="sourcePoint" />
              <mxPoint x="-410" y="-2350" as="targetPoint" />
              <Array as="points">
                <mxPoint x="-420" y="-2540" />
                <mxPoint x="-420" y="-2530" />
                <mxPoint x="-417" y="-2530" />
              </Array>
              <mxPoint as="offset" />
            </mxGeometry>
          </mxCell>
        </object>
        <object placeholders="1" c4Name="Single Page Application" c4Type="Container" c4Technology="JavaScript, Angular etc." c4Description="Browser Exchange" label="&lt;font style=&quot;font-size: 16px&quot;&gt;&lt;b&gt;%c4Name%&lt;/b&gt;&lt;/font&gt;&lt;div&gt;[%c4Type%:&amp;nbsp;%c4Technology%]&lt;/div&gt;&lt;br&gt;&lt;div&gt;&lt;font style=&quot;font-size: 11px&quot;&gt;&lt;font&gt;%c4Description%&lt;/font&gt;&lt;/font&gt;&lt;/div&gt;" id="HM4_U0yWMF5hoYivVRVp-1">
          <mxCell style="shape=mxgraph.c4.webBrowserContainer2;whiteSpace=wrap;html=1;boundedLbl=1;rounded=0;labelBackgroundColor=none;strokeColor=#118ACD;fillColor=#23A2D9;strokeColor=#118ACD;strokeColor2=#0E7DAD;fontSize=12;fontColor=#000000;align=center;metaEdit=1;points=[[0.5,0,0],[1,0.25,0],[1,0.5,0],[1,0.75,0],[0.5,1,0],[0,0.75,0],[0,0.5,0],[0,0.25,0]];resizable=0;shadow=1;sketch=1;curveFitting=1;jiggle=2;" parent="1" vertex="1">
            <mxGeometry x="-530" y="-2179" width="240" height="160" as="geometry" />
          </mxCell>
        </object>
        <object placeholders="1" c4Name="API Application" c4Type="ContainerScopeBoundary" c4Application="Cash Flow System" label="&lt;font style=&quot;font-size: 16px&quot;&gt;&lt;b&gt;&lt;div style=&quot;text-align: left&quot;&gt;%c4Name%&lt;/div&gt;&lt;/b&gt;&lt;/font&gt;&lt;div style=&quot;text-align: left&quot;&gt;[%c4Application%]&lt;/div&gt;&#xa;" link="" id="HM4_U0yWMF5hoYivVRVp-2">
          <mxCell style="rounded=1;fontSize=11;whiteSpace=wrap;html=1;arcSize=20;fillColor=#DBDBDB;strokeColor=#d4d3d3;fontColor=#333333;labelBackgroundColor=none;align=left;verticalAlign=bottom;labelBorderColor=none;spacingTop=0;spacing=10;metaEdit=1;rotatable=0;perimeter=rectanglePerimeter;noLabel=0;labelPadding=0;allowArrows=0;connectable=0;expand=0;recursiveResize=0;editable=1;pointerEvents=0;absoluteArcSize=1;points=[[0.25,0,0],[0.5,0,0],[0.75,0,0],[1,0.25,0],[1,0.5,0],[1,0.75,0],[0.75,1,0],[0.5,1,0],[0.25,1,0],[0,0.75,0],[0,0.5,0],[0,0.25,0]];shadow=1;gradientColor=none;sketch=1;curveFitting=1;jiggle=2;glass=0;" parent="1" vertex="1">
            <mxGeometry x="-703" y="-1875" width="273" height="215" as="geometry" />
          </mxCell>
        </object>
        <object placeholders="1" c4Name="CashFlow API" c4Type="Component" c4Technology="Controller" c4Description="Responsabilidade de receber os dados de&#xa;fluxo de caixa" label="&lt;font style=&quot;font-size: 16px&quot;&gt;&lt;b&gt;%c4Name%&lt;/b&gt;&lt;/font&gt;&lt;div&gt;[%c4Type%: %c4Technology%]&lt;/div&gt;&lt;br&gt;&lt;div&gt;&lt;font style=&quot;font-size: 11px&quot;&gt;%c4Description%&lt;/font&gt;&lt;/div&gt;" id="HM4_U0yWMF5hoYivVRVp-3">
          <mxCell style="rounded=1;whiteSpace=wrap;html=1;labelBackgroundColor=none;fillColor=#63BEF2;fontColor=#000000;align=center;arcSize=6;strokeColor=#2086C9;metaEdit=1;resizable=0;points=[[0.25,0,0],[0.5,0,0],[0.75,0,0],[1,0.25,0],[1,0.5,0],[1,0.75,0],[0.75,1,0],[0.5,1,0],[0.25,1,0],[0,0.75,0],[0,0.5,0],[0,0.25,0]];sketch=1;curveFitting=1;jiggle=2;" parent="1" vertex="1">
            <mxGeometry x="-686.5" y="-1852" width="240" height="120" as="geometry" />
          </mxCell>
        </object>
        <object placeholders="1" c4Type="Relationship" c4Technology="HTTP" c4Description="Uses" label="&lt;div style=&quot;text-align: left&quot;&gt;&lt;div style=&quot;text-align: center&quot;&gt;&lt;b&gt;%c4Description%&lt;/b&gt;&lt;/div&gt;&lt;div style=&quot;text-align: center&quot;&gt;[%c4Technology%]&lt;/div&gt;&lt;/div&gt;" id="HM4_U0yWMF5hoYivVRVp-4">
          <mxCell style="endArrow=blockThin;html=1;fontSize=10;fontColor=#404040;strokeWidth=2;endFill=1;strokeColor=#1a9aea;elbow=vertical;metaEdit=1;jumpStyle=arc;jumpSize=16;rounded=1;edgeStyle=orthogonalEdgeStyle;curved=0;entryX=0.5;entryY=0;entryDx=0;entryDy=0;entryPerimeter=0;fillColor=#000066;exitX=0.445;exitY=1;exitDx=0;exitDy=0;exitPerimeter=0;" parent="1" source="HM4_U0yWMF5hoYivVRVp-1" target="HM4_U0yWMF5hoYivVRVp-3" edge="1">
            <mxGeometry x="0.2781" y="30" width="240" relative="1" as="geometry">
              <mxPoint x="-399" y="-2014" as="sourcePoint" />
              <mxPoint x="-398" y="-1886" as="targetPoint" />
              <Array as="points">
                <mxPoint x="-423" y="-1929" />
                <mxPoint x="-424" y="-1929" />
                <mxPoint x="-424" y="-1927" />
                <mxPoint x="-564" y="-1927" />
                <mxPoint x="-564" y="-1926" />
                <mxPoint x="-566" y="-1926" />
              </Array>
              <mxPoint x="-10" y="-22" as="offset" />
            </mxGeometry>
          </mxCell>
        </object>
        <object placeholders="1" c4Name="Application/Services" c4Type="ContainerScopeBoundary" c4Application="Container" label="&lt;font style=&quot;font-size: 16px&quot;&gt;&lt;b&gt;&lt;div style=&quot;text-align: left&quot;&gt;%c4Name%&lt;/div&gt;&lt;/b&gt;&lt;/font&gt;&lt;div style=&quot;text-align: left&quot;&gt;[%c4Application%]&lt;/div&gt;&#xa;" link="" id="HM4_U0yWMF5hoYivVRVp-5">
          <mxCell style="rounded=1;fontSize=11;whiteSpace=wrap;html=1;arcSize=20;fillColor=#DBDBDB;strokeColor=#d4d3d3;fontColor=#333333;labelBackgroundColor=none;align=left;verticalAlign=bottom;labelBorderColor=none;spacingTop=0;spacing=10;metaEdit=1;rotatable=0;perimeter=rectanglePerimeter;noLabel=0;labelPadding=0;allowArrows=0;connectable=0;expand=0;recursiveResize=0;editable=1;pointerEvents=0;absoluteArcSize=1;points=[[0.25,0,0],[0.5,0,0],[0.75,0,0],[1,0.25,0],[1,0.5,0],[1,0.75,0],[0.75,1,0],[0.5,1,0],[0.25,1,0],[0,0.75,0],[0,0.5,0],[0,0.25,0]];shadow=1;gradientColor=none;sketch=1;curveFitting=1;jiggle=2;glass=0;" parent="1" vertex="1">
            <mxGeometry x="-291" y="-1875" width="180" height="424" as="geometry" />
          </mxCell>
        </object>
        <object placeholders="1" c4Name="CashFlow&#xa;Engine" c4Type="Container" c4Technology="MongoDB" c4Description="Responsabilidade de storage&#xa;CashFlow " label="&lt;font style=&quot;font-size: 14px;&quot;&gt;&lt;b style=&quot;font-size: 14px;&quot;&gt;%c4Name%&lt;/b&gt;&lt;/font&gt;&lt;div style=&quot;font-size: 14px;&quot;&gt;[%c4Type%:&amp;nbsp;%c4Technology%]&lt;/div&gt;&lt;br style=&quot;font-size: 14px;&quot;&gt;&lt;div style=&quot;font-size: 14px;&quot;&gt;&lt;font style=&quot;font-size: 14px;&quot;&gt;&lt;font style=&quot;font-size: 14px;&quot; color=&quot;#E6E6E6&quot;&gt;%c4Description%&lt;/font&gt;&lt;/font&gt;&lt;/div&gt;" id="HM4_U0yWMF5hoYivVRVp-6">
          <mxCell style="shape=cylinder3;size=15;whiteSpace=wrap;html=1;boundedLbl=1;rounded=0;labelBackgroundColor=none;fillColor=#4aa73b;fontSize=14;fontColor=#ffffff;align=center;strokeColor=#0E7DAD;metaEdit=1;points=[[0.5,0,0],[1,0.25,0],[1,0.5,0],[1,0.75,0],[0.5,1,0],[0,0.75,0],[0,0.5,0],[0,0.25,0]];resizable=1;verticalAlign=middle;shadow=1;" parent="1" vertex="1">
            <mxGeometry x="-686.5" y="-1585" width="240" height="144" as="geometry" />
          </mxCell>
        </object>
        <object placeholders="1" c4Type="MessageBus" c4Container="Container" c4Technology="RabbitMQ - Topics/Queue" c4Description="Responsabilidade de &#xa;Publicar Cash Flow&#xa;/Daily Consolidated &#xa;para os serviços" label="&lt;font style=&quot;font-size: 16px&quot;&gt;&lt;b&gt;%c4Type%&lt;/b&gt;&lt;/font&gt;&lt;div&gt;[%c4Container%:&amp;nbsp;%c4Technology%]&lt;/div&gt;&lt;br&gt;&lt;div&gt;&lt;font style=&quot;font-size: 11px&quot;&gt;&lt;font color=&quot;#E6E6E6&quot;&gt;%c4Description%&lt;/font&gt;&lt;/div&gt;" id="HM4_U0yWMF5hoYivVRVp-7">
          <mxCell style="shape=cylinder3;size=15;direction=south;whiteSpace=wrap;html=1;boundedLbl=1;rounded=0;labelBackgroundColor=none;fillColor=#f76300;fontSize=12;fontColor=#ffffff;align=center;strokeColor=#994C00;metaEdit=1;points=[[0.5,0,0],[1,0.25,0],[1,0.5,0],[1,0.75,0],[0.5,1,0],[0,0.75,0],[0,0.5,0],[0,0.25,0]];resizable=1;rotation=-90;resizeHeight=1;resizeWidth=1;shadow=1;" parent="1" vertex="1">
            <mxGeometry x="-366" y="-1750" width="330" height="105" as="geometry" />
          </mxCell>
        </object>
        <object placeholders="1" c4Type="Relationship" c4Technology="[Protobuf]" c4Description="Send To" label="&lt;div style=&quot;text-align: left&quot;&gt;&lt;div style=&quot;text-align: center&quot;&gt;&lt;b&gt;%c4Description%&lt;/b&gt;&lt;/div&gt;&lt;div style=&quot;text-align: center&quot;&gt;[%c4Technology%]&lt;/div&gt;&lt;/div&gt;" id="HM4_U0yWMF5hoYivVRVp-8">
          <mxCell style="endArrow=blockThin;html=1;fontSize=10;fontColor=#404040;strokeWidth=2;endFill=1;strokeColor=#1a9aea;elbow=vertical;metaEdit=1;jumpStyle=arc;jumpSize=16;rounded=1;edgeStyle=orthogonalEdgeStyle;curved=0;fillColor=#000066;exitX=1.001;exitY=0.841;exitDx=0;exitDy=0;exitPerimeter=0;" parent="1" source="HM4_U0yWMF5hoYivVRVp-3" edge="1">
            <mxGeometry x="0.2781" y="30" width="240" relative="1" as="geometry">
              <mxPoint x="-361" y="-1705" as="sourcePoint" />
              <mxPoint x="-288" y="-1777" as="targetPoint" />
              <Array as="points">
                <mxPoint x="-358" y="-1751" />
                <mxPoint x="-358" y="-1777" />
              </Array>
              <mxPoint x="-10" y="-22" as="offset" />
            </mxGeometry>
          </mxCell>
        </object>
        <object placeholders="1" c4Type="Relationship" c4Technology="Entity Framework" c4Description="Write to" label="&lt;div style=&quot;text-align: left&quot;&gt;&lt;div style=&quot;text-align: center&quot;&gt;&lt;b&gt;%c4Description%&lt;/b&gt;&lt;/div&gt;&lt;div style=&quot;text-align: center&quot;&gt;[%c4Technology%]&lt;/div&gt;&lt;/div&gt;" id="HM4_U0yWMF5hoYivVRVp-9">
          <mxCell style="endArrow=blockThin;html=1;fontSize=10;fontColor=#404040;strokeWidth=2;endFill=1;strokeColor=#1a9aea;elbow=vertical;metaEdit=1;jumpStyle=arc;jumpSize=16;rounded=1;edgeStyle=orthogonalEdgeStyle;curved=0;fillColor=#000066;entryX=1;entryY=0.5;entryDx=0;entryDy=0;entryPerimeter=0;" parent="1" target="HM4_U0yWMF5hoYivVRVp-6" edge="1">
            <mxGeometry x="-0.0886" y="-20" width="240" relative="1" as="geometry">
              <mxPoint x="-290" y="-1587" as="sourcePoint" />
              <mxPoint x="-295" y="-1614" as="targetPoint" />
              <Array as="points">
                <mxPoint x="-416" y="-1587" />
                <mxPoint x="-416" y="-1513" />
              </Array>
              <mxPoint as="offset" />
            </mxGeometry>
          </mxCell>
        </object>
        <object placeholders="1" c4Type="Relationship" c4Technology="Entity Framework" c4Description="Read to" label="&lt;div style=&quot;text-align: left&quot;&gt;&lt;div style=&quot;text-align: center&quot;&gt;&lt;b&gt;%c4Description%&lt;/b&gt;&lt;/div&gt;&lt;div style=&quot;text-align: center&quot;&gt;[%c4Technology%]&lt;/div&gt;&lt;/div&gt;" id="HM4_U0yWMF5hoYivVRVp-10">
          <mxCell style="endArrow=blockThin;html=1;fontSize=10;fontColor=#404040;strokeWidth=2;endFill=1;strokeColor=#1a9aea;elbow=vertical;metaEdit=1;jumpStyle=arc;jumpSize=16;rounded=1;edgeStyle=orthogonalEdgeStyle;curved=0;fillColor=#000066;entryX=0.5;entryY=0;entryDx=0;entryDy=0;entryPerimeter=0;" parent="1" target="HM4_U0yWMF5hoYivVRVp-6" edge="1">
            <mxGeometry x="-0.3149" y="-64" width="240" relative="1" as="geometry">
              <mxPoint x="-564" y="-1659" as="sourcePoint" />
              <mxPoint x="-436" y="-1503" as="targetPoint" />
              <Array as="points">
                <mxPoint x="-566" y="-1659" />
                <mxPoint x="-566" y="-1611" />
                <mxPoint x="-566" y="-1611" />
              </Array>
              <mxPoint as="offset" />
            </mxGeometry>
          </mxCell>
        </object>
        <object placeholders="1" c4Type="Relationship" c4Technology="[JSON]" c4Description="Send To" label="&lt;div style=&quot;text-align: left&quot;&gt;&lt;div style=&quot;text-align: center&quot;&gt;&lt;b&gt;%c4Description%&lt;/b&gt;&lt;/div&gt;&lt;div style=&quot;text-align: center&quot;&gt;[%c4Technology%]&lt;/div&gt;&lt;/div&gt;" id="HM4_U0yWMF5hoYivVRVp-11">
          <mxCell style="endArrow=blockThin;html=1;fontSize=10;fontColor=#404040;strokeWidth=2;endFill=1;strokeColor=#1a9aea;elbow=vertical;metaEdit=1;jumpStyle=arc;jumpSize=16;rounded=1;edgeStyle=orthogonalEdgeStyle;curved=0;fillColor=#000066;entryX=0.551;entryY=1.004;entryDx=0;entryDy=0;entryPerimeter=0;" parent="1" target="HM4_U0yWMF5hoYivVRVp-1" edge="1">
            <mxGeometry x="-0.0454" y="-16" width="240" relative="1" as="geometry">
              <mxPoint x="-205" y="-1874" as="sourcePoint" />
              <mxPoint x="-123" y="-1956" as="targetPoint" />
              <Array as="points">
                <mxPoint x="-205" y="-1927" />
                <mxPoint x="-212" y="-1927" />
                <mxPoint x="-212" y="-1929" />
                <mxPoint x="-398" y="-1929" />
              </Array>
              <mxPoint as="offset" />
            </mxGeometry>
          </mxCell>
        </object>
        <object placeholders="1" c4Type="Relationship" c4Technology="Protobuf" c4Description="Sends to" label="&lt;div style=&quot;text-align: left&quot;&gt;&lt;div style=&quot;text-align: center&quot;&gt;&lt;b&gt;%c4Description%&lt;/b&gt;&lt;/div&gt;&lt;div style=&quot;text-align: center&quot;&gt;[%c4Technology%]&lt;/div&gt;&lt;/div&gt;" id="cf9yCC_kzyofSs4ObvGQ-1">
          <mxCell style="endArrow=blockThin;html=1;fontSize=10;fontColor=#404040;strokeWidth=3;endFill=1;strokeColor=#f76300;elbow=vertical;metaEdit=1;jumpStyle=arc;jumpSize=16;rounded=1;edgeStyle=orthogonalEdgeStyle;curved=0;fillColor=#000066;exitX=0.5;exitY=1;exitDx=0;exitDy=0;exitPerimeter=0;entryX=0.5;entryY=0;entryDx=0;entryDy=0;entryPerimeter=0;dashed=1;flowAnimation=1;" edge="1" parent="1" source="QPM4C6ns2PmxzMLg4GbO-6" target="QPM4C6ns2PmxzMLg4GbO-2">
            <mxGeometry x="0.0695" y="-16" width="240" relative="1" as="geometry">
              <mxPoint x="-398.75" y="-241" as="sourcePoint" />
              <mxPoint x="-439.75" y="-336" as="targetPoint" />
              <Array as="points">
                <mxPoint x="-580" y="-229" />
                <mxPoint x="-205" y="-229" />
              </Array>
              <mxPoint as="offset" />
            </mxGeometry>
          </mxCell>
        </object>
      </root>
    </mxGraphModel>
  </diagram>
</mxfile>
